<svg xmlns="http://www.w3.org/2000/svg" width="150" height="132.31" viewBox="885 4333 150 132.31"><g data-name="شعار لغة الفن-01"><path d="m970.64 4440.942-.251-.115.28.212c-1.1-.521-2.065-1.264-2.606-2.374a3.957 3.957 0 0 1-.273-.77 3.564 3.564 0 0 1-.1-.832 3.293 3.293 0 0 1 .035-.483 3.623 3.623 0 0 1 .25-.907 5.423 5.423 0 0 1 .464-.859 21.532 21.532 0 0 1-1.97.393 33.424 33.424 0 0 1-.693.1c-1.213.163-2.54.232-3.868.215a30.54 30.54 0 0 1-2.116-.1 33.99 33.99 0 0 1-1.428-.154c-.275-.036-.55-.04-.825-.06a4.714 4.714 0 0 1-.275-.027 1.606 1.606 0 0 0-.334-.021 1.57 1.57 0 0 0-.033.002c-.868 1.698-2.171 2.972-3.792 3.947a8.332 8.332 0 0 1-.956.502 7.824 7.824 0 0 1-.347.144 7.348 7.348 0 0 1-.934.27 19.84 19.84 0 0 1-.6.126c-.684.127-1.409.205-2.154.205a10.094 10.094 0 0 1-1.35-.09 9.754 9.754 0 0 1-1.845-.44 8.219 8.219 0 0 1-1.108-.476 9.375 9.375 0 0 1-2.127-1.49 7.09 7.09 0 0 1-.585-.633 6.455 6.455 0 0 0-.227-.254 13.695 13.695 0 0 1-.226-.248 8.668 8.668 0 0 1-1.428-2.379 10.709 10.709 0 0 1-.483-1.51l-.068-.116c-.376-1.532-.43-3.632-.218-5.411a15.529 15.529 0 0 1 .035-.273 26.719 26.719 0 0 1 .6-3.027 32.945 32.945 0 0 1 .635-2.146 42.11 42.11 0 0 1 3.24-7.271 51.416 51.416 0 0 1 .254-.45 15.85 15.85 0 0 1 .214-.369 164.402 164.402 0 0 0 .23-.383 3.449 3.449 0 0 1 .022-.034c.056-.08.122-.175.122-.217l-.135-.251a13.428 13.428 0 0 1-1.407-3.587c-.442-1.8-.63-3.841-.58-6.073l-.146.144c-.665.82-1.457 1.545-2.22 2.297a42.926 42.926 0 0 1-1.682 1.532l-.086.075a90.835 90.835 0 0 0-.77.68c-.297.264-.602.518-.906.771a16.836 16.836 0 0 0-1.65 1.507 17.656 17.656 0 0 0-2.143 2.683 6.09 6.09 0 0 0-.578 1.154 4.647 4.647 0 0 0-.156.535 7.773 7.773 0 0 0-.14.841 16.525 16.525 0 0 0-.024.201 5.929 5.929 0 0 0-.038.637 3.718 3.718 0 0 0 .029.473 3.04 3.04 0 0 0 .165.69 2.917 2.917 0 0 0 .597.96c.692.755 1.751 1.342 3.14 1.342a5.06 5.06 0 0 0 .315-.01 3.658 3.658 0 0 0 1.655-.521 4.668 4.668 0 0 0 .14-.087 4.27 4.27 0 0 0 1.804-2.144 4.672 4.672 0 0 0 .194-.674l-.145.087a1.782 1.782 0 0 1-1.35.282 1.766 1.766 0 0 1-.098-.022 1.722 1.722 0 0 1-.89-.593 1.653 1.653 0 0 1-.349-1.247 1.84 1.84 0 0 1 .004-.032 1.805 1.805 0 0 1 .385-.902 1.646 1.646 0 0 1 1.057-.575 2.026 2.026 0 0 1 .199-.019 1.739 1.739 0 0 1 .102-.003c.484 0 .871.206 1.138.465a1.655 1.655 0 0 1 .178.204 1.895 1.895 0 0 1 .305.643c.075.28.104.603.086.982a4.9 4.9 0 0 1-.005.074c-.086 1.225-.588 2.287-1.148 3.04-.57.772-1.37 1.486-2.297 1.9a4.401 4.401 0 0 1-.782.271 4.794 4.794 0 0 1-1.108.123c-.484 0-.97-.063-1.41-.174a5.217 5.217 0 0 1-.232-.065 4.807 4.807 0 0 1-1.257-.58 4.706 4.706 0 0 1-1.204-1.157 4.262 4.262 0 0 1-.64-1.27 6.056 6.056 0 0 1-.26-1.828 7.881 7.881 0 0 1 .003-.164c.028-1.274.395-2.364.84-3.339a13.617 13.617 0 0 1 1.252-2.166 14.499 14.499 0 0 1 .33-.45c1.225-1.601 2.644-2.952 4.13-4.245a21.498 21.498 0 0 1 .574-.478 21.501 21.501 0 0 0 .575-.478 19.759 19.759 0 0 0 3.098-3.185 10.832 10.832 0 0 0 1.534-2.663c.183-.492.328-1.062.473-1.621a20.042 20.042 0 0 0 .039-.146c.04-.155.081-.323.116-.494a5.504 5.504 0 0 0 .038-.21c.048-.27.058-.637.193-.849.068-.096.174-.145.29-.203l.144.107a4.027 4.027 0 0 1 .065.758c0 .414-.045.835-.074 1.258a30.396 30.396 0 0 0-.08 1.905c-.023 2.158.18 4.317.62 6.067a7.294 7.294 0 0 0 .04.145 3.593 3.593 0 0 1 .076.29l.029.212c.047.236.127.487.208.728a39.726 39.726 0 0 1 .1.304 11.9 11.9 0 0 0 .759 1.91 4.249 4.249 0 0 0 .69.966 14.042 14.042 0 0 0 .957-2.173 33.095 33.095 0 0 0 .268-.78 48.174 48.174 0 0 0 1.206-4.192 42.534 42.534 0 0 0 .164-.72 13.764 13.764 0 0 0 .29-1.669 7.505 7.505 0 0 0 .01-.117 20.047 20.047 0 0 0 .052-1.097c.017-.833-.026-1.667-.166-2.44a8.271 8.271 0 0 0-.06-.304c-.251-1.158-.686-2.103-1.284-2.904a3.93 3.93 0 0 0-.492-.56 7.783 7.783 0 0 0-1.8-1.154 5.814 5.814 0 0 0-.12-.052 5.515 5.515 0 0 0-.878-.29 5.515 5.515 0 0 0-1.42-.155 4.065 4.065 0 0 0-1.196.203 5.447 5.447 0 0 0-1.496.786 5.442 5.442 0 0 0-.965.932 2.324 2.324 0 0 1 .757.293 2.485 2.485 0 0 1 .893 1 2.137 2.137 0 0 1 .187.532c.102.471.084 1.013-.058 1.453a1.75 1.75 0 0 1-.177.39c-.396.636-.975 1.032-1.94 1.003a1.89 1.89 0 0 1-.62-.121c-.523-.2-.87-.615-1.184-1.008a12.08 12.08 0 0 1-1.641 2.432 41.532 41.532 0 0 0-.203.245 6.83 6.83 0 0 1-.424.479c-.898.897-1.815 1.785-2.867 2.547a30.068 30.068 0 0 1-5.105 3.03 47.022 47.022 0 0 0-.006.003c-.249.115-.512.24-.785.365a19.545 19.545 0 0 1-.85.366c-.134.048-.221.058-.25-.029-.025-.1.086-.164.198-.223a8.157 8.157 0 0 0 .053-.028 8.03 8.03 0 0 0 .417-.259c.179-.117.352-.234.528-.34 1.265-.771 2.471-1.659 3.61-2.566 1.553-1.226 2.972-2.51 4.217-4.005a92.685 92.685 0 0 0 .186-.221 12.713 12.713 0 0 0 .721-.928 20.525 20.525 0 0 1 .323-.45l.022-.03a12.542 12.542 0 0 0 .504-.726 23.263 23.263 0 0 0 1.081-2.007c.107-.222.251-.435.386-.637a9.234 9.234 0 0 1 3.06-3.108 5.953 5.953 0 0 1 .99-.486 3.769 3.769 0 0 1 .438-.131 5.813 5.813 0 0 1 1.312-.146 7.856 7.856 0 0 1 1.477.136c.132.026.489.125.61.164a.704.704 0 0 1 .027.01 8.946 8.946 0 0 1 1.806.9 10.353 10.353 0 0 1 .935.682 5.445 5.445 0 0 1 1.013 1.043 7.713 7.713 0 0 1 .852 1.577 9.716 9.716 0 0 1 .412 1.28 7.433 7.433 0 0 1 .161.992c.09.894.071 1.899.023 2.82-.097 1.92-.473 3.667-.879 5.278a30.25 30.25 0 0 1-1.27 3.864 74.113 74.113 0 0 1-.91 2.168c.134.145.337.212.53.299a4.2 4.2 0 0 0 .735.258c.294.074.615.125.955.146a5.641 5.641 0 0 0 .346.011c1.052 0 1.95-.28 2.683-.58a10.309 10.309 0 0 0-.057-.15c-.216-.556-.61-1.466-.618-1.519 0-.067.53-3.58.753-5.201a16.521 16.521 0 0 0 1.306.055c2.746.008 5.089-.697 6.888-1.824a9.944 9.944 0 0 0 1.205-.885l.213-.164a33.55 33.55 0 0 1-.766 4.362c-.294 1.108-.683 2.121-1.23 2.974a6.838 6.838 0 0 1-.128.191 7.3 7.3 0 0 0 1.808-.53 10.43 10.43 0 0 0 1.744-.995 13.075 13.075 0 0 0 2.345-2.103c.071-.078.151-.156.205-.24a.39.39 0 0 0 .056-.127c.028-.196.036-.407.038-.62a24.71 24.71 0 0 0 0-.21c.015-1.067-.04-2.08-.16-3.029a16.198 16.198 0 0 0-.477-2.375l-.01-.01a11.554 11.554 0 0 1-2.167.62 9.723 9.723 0 0 1-.583.084c-1.052.116-2.22.107-3.233-.077a11.565 11.565 0 0 1-2.433-.698 11.772 11.772 0 0 1-2.411-1.348 11.143 11.143 0 0 1-3.224-3.667 10.268 10.268 0 0 1-.682-1.481 9.334 9.334 0 0 1-.302-.99 10.868 10.868 0 0 1-.26-1.433 9.418 9.418 0 0 1-.04-1.684 15.469 15.469 0 0 1 .5-2.895 21.487 21.487 0 0 1 .9-2.606 46.644 46.644 0 0 1 2.183-4.474 149.753 149.753 0 0 1 .075-.139c.184-.34 2.993-4.91 4.588-7.587a133.638 133.638 0 0 0 .45-.76 1.773 1.773 0 0 1 .023-.037c.052-.083.115-.173.13-.225a.095.095 0 0 0 .001-.009.145.145 0 0 0 .001-.015c.002-.08-.05-.215-.078-.342a132.304 132.304 0 0 1-.55-2.688c-.176-.9-.347-1.8-.521-2.687a86.438 86.438 0 0 1-.327-1.737 167.129 167.129 0 0 0-.214-1.168 154.982 154.982 0 0 0-.132-.731c-.09-.488-.179-.975-.258-1.462a30.566 30.566 0 0 1-.111-.731 17.122 17.122 0 0 1-.164-1.892c-.052-1.553.08-3.16.366-4.439.425-1.872 1.13-3.436 2.21-4.661a10.912 10.912 0 0 0-1.077-1.044 74.154 74.154 0 0 0-.187-.163 15.132 15.132 0 0 0-1.38-1.08 29.797 29.797 0 0 0-5.108-2.898 36.153 36.153 0 0 0-1.31-.557 35.97 35.97 0 0 0-3.012-1.037 68.797 68.797 0 0 0-.211-.064 2.256 2.256 0 0 0-.115-.03c-.163-.04-.327-.075-.358-.191a2.161 2.161 0 0 1-.023-.107c-.16-.811-.995-5.64-1.067-6.292l.144-.106a2.22 2.22 0 0 1 .367.068c.05.012.099.025.148.039a7.732 7.732 0 0 0 .219.057 31.69 31.69 0 0 1 4.017 1.274 27.407 27.407 0 0 1 .683.28 27.984 27.984 0 0 1 2.873 1.406 27.842 27.842 0 0 1 1.778 1.093 24.984 24.984 0 0 1 2.027 1.554 23.446 23.446 0 0 1 4.95 5.78c.918 1.468 1.66 3.08 2.259 4.894a18.854 18.854 0 0 1 .374 1.307 13.995 13.995 0 0 1 .022.092 10.462 10.462 0 0 1 .165 1.17 43.847 43.847 0 0 1 .037.413 23.46 23.46 0 0 1 .075 1.49c.002.117.003.236.003.356a18.119 18.119 0 0 1-.068 1.599 27.775 27.775 0 0 1-.532 3.485 29.708 29.708 0 0 1-.655 2.48 35.632 35.632 0 0 1-1.785 4.467 1.816 1.816 0 0 1-.05.095c-.09.166-.216.359-.24.504v.067a4.08 4.08 0 0 0 .084.415c.034.138.07.275.1.415a501.35 501.35 0 0 1 .641 2.874 795.69 795.69 0 0 0 .642 2.888 2750.953 2750.953 0 0 0 .364 1.646l.091.412a1324.364 1324.364 0 0 0 .645 2.892 72.371 72.371 0 0 0 .28 1.225 5.601 5.601 0 0 1 0 .001c.039.164.048.338.116.463a8.453 8.453 0 0 1 1.682.627 5.24 5.24 0 0 1 .653.396 17.909 17.909 0 0 1 .927.705 8.26 8.26 0 0 1 2.362 3.142 9.95 9.95 0 0 1 .63 2.05c.137.726.204 1.502.204 2.273a13.29 13.29 0 0 1-.021.757 8.175 8.175 0 0 1-.211 1.416 12.12 12.12 0 0 1-.378 1.257 9.331 9.331 0 0 1-1.744 2.962 9.165 9.165 0 0 1-.707.725l-.193.203c-.027.117-.004.294 0 .443a1.426 1.426 0 0 1 0 .03 31.014 31.014 0 0 1-.17 3.324 23.36 23.36 0 0 1-.515 3.006 18.3 18.3 0 0 1-1.166 3.4 12.814 12.814 0 0 1-1.054 1.86c-.502.724-1.1 1.447-1.766 1.969-.695.54-1.457.994-2.326 1.418-1.235.599-2.606 1.09-4.294 1.322a7.248 7.248 0 0 1-.592.052l-.04.003a27.02 27.02 0 0 0-.217.013 2.866 2.866 0 0 1-.18.005c-.253 0-.51-.028-.728-.044a.115.115 0 0 0-.011 0c-.093 0-.186.11-.288.174a13.573 13.573 0 0 1-2.961 1.594 10.428 10.428 0 0 1-1.498.433 7.236 7.236 0 0 1-1.45.146h-.02a6.487 6.487 0 0 1-1.589-.195 5.15 5.15 0 0 1-1.255-.515 4.768 4.768 0 0 1-.955-.73c-1.92 3.484-3.84 7.017-4.536 11.765a12.71 12.71 0 0 0-.107.973c-.06.824-.052 1.712.038 2.507a9.69 9.69 0 0 0 .04.312c.042.278.084.56.157.812a1.957 1.957 0 0 0 .104.279l.02.077.047.029a.544.544 0 0 1 .04.083c.03.08.054.176.085.257a.836.836 0 0 0 .01.027 8.147 8.147 0 0 0 .918 1.749 8.29 8.29 0 0 0 .955 1.136 8.175 8.175 0 0 0 2.369 1.656 8.605 8.605 0 0 0 1.009.39 8.963 8.963 0 0 0 1.478.334 8.337 8.337 0 0 0 .838.072 7.876 7.876 0 0 0 .274.004 7.763 7.763 0 0 0 3.843-1.016 7.546 7.546 0 0 0 .12-.07c.424-.26.8-.55 1.167-.868a7.14 7.14 0 0 0 .058-.049c.09-.077.18-.16.245-.255a.666.666 0 0 0 .015-.024 20.553 20.553 0 0 1-3.392-1.11 13.286 13.286 0 0 1-2.012-1.08c-.743-.493-1.457-1.062-1.94-1.854-.222-.366-.482-.81-.579-1.322a3.802 3.802 0 0 1-.057-.567 4.016 4.016 0 0 1 .031-.633 3.348 3.348 0 0 1 .017-.112 2.277 2.277 0 0 1 .585-1.13 2.504 2.504 0 0 1 .341-.308 2.418 2.418 0 0 1 .6-.33c.246-.093.518-.152.81-.162a3.1 3.1 0 0 1 .124-.003c.978 0 1.678.473 2.09 1.102a2.645 2.645 0 0 1 .169.3 2.396 2.396 0 0 1 .229 1.031c0 .19-.022.378-.065.561a2.334 2.334 0 0 1-.398.842 2.577 2.577 0 0 1-.307.345 2.34 2.34 0 0 1-.574.386c-.653.317-1.534.427-2.282.039.84.955 1.95 1.563 3.156 2.085a15.995 15.995 0 0 0 2.05.777 8.714 8.714 0 0 0 .903.207 93.334 93.334 0 0 0 .853.13 149.695 149.695 0 0 0 .295.044 6.71 6.71 0 0 0 1.071-2.095 11.186 11.186 0 0 0 .423-1.645 7.396 7.396 0 0 0 .098-.999 8.467 8.467 0 0 0 .002-.157c0-.331-.02-.648-.057-.954a7.907 7.907 0 0 0-.05-.356 9.127 9.127 0 0 0-1.304-3.445 7.17 7.17 0 0 0-3.481-2.886 9.04 9.04 0 0 0-2.54-.579 10.872 10.872 0 0 0-.901-.036c-.3 0-.606.012-.912.034a12.986 12.986 0 0 0-1.102.128l.02-.03a10.185 10.185 0 0 1 4.057-1.096 9.958 9.958 0 0 1 .362-.013c1.498-.024 2.7.411 3.712.965a11.562 11.562 0 0 1 .544.319c-.202-1.979.444-3.513 1.419-4.517a4.375 4.375 0 0 1 1.129-.888c-.364.94-.71 1.965-.752 3.208a7.48 7.48 0 0 0 0 .025c-.04 1.284.27 2.307.877 3.07a2.195 2.195 0 0 0 .564.48c.196.125.408.234.614.34.453.221.955.405 1.467.53 1.07.251 2.538.241 3.445-.193l.02-.02c-.446-.724-.733-1.63-.827-2.697a8.592 8.592 0 0 1-.023-.342c-.087-1.901.376-3.532.917-4.883.193-.473.415-.869.685-1.265a5.567 5.567 0 0 1 1.998-1.881 3.396 3.396 0 0 1 .89-.324c.196-.04.403-.063.622-.063a3.206 3.206 0 0 1 .051 0 3.466 3.466 0 0 1 1.298.272 2.882 2.882 0 0 1 .237.115c1.588.856 2.652 2.622 2.46 5.13a8.025 8.025 0 0 1-.01.11 7.718 7.718 0 0 1-.25 1.379 9.586 9.586 0 0 1-.627 1.622 8.124 8.124 0 0 0 1.872-1.129 16.864 16.864 0 0 0 4.12-4.922.774.774 0 0 0 .008-.046c.037-.25.127-1.224.118-1.652-.13-.066-.265-.102-.398-.138a3.052 3.052 0 0 1-.248-.075c-1.477-.472-2.732-1.225-3.812-2.113a7.266 7.266 0 0 1-.692-.661 48.976 48.976 0 0 1-.167-.179 4.514 4.514 0 0 1-.86-1.308 4.814 4.814 0 0 1-.289-.93 2.413 2.413 0 0 1-.052-.5 2.375 2.375 0 0 1 .197-.948 2.159 2.159 0 0 1 1.365-1.26 3.303 3.303 0 0 1 .633-.14 1.221 1.221 0 0 1 .151-.009c.396 0 .832.172 1.107.32a2.429 2.429 0 0 1 .064.037 2.312 2.312 0 0 1 .67.626c.3.418.487.968.408 1.603a2.443 2.443 0 0 1-.007.048 2.402 2.402 0 0 1-.347.959 2.28 2.28 0 0 1-1.168.914 2.419 2.419 0 0 1-.616.115 3.715 3.715 0 0 1-.87-.057l.115.106a14.003 14.003 0 0 0 2.916 1.755 11.293 11.293 0 0 0 1.823.619 50.339 50.339 0 0 0-1.114-6.564c-.309-1.362-.64-2.702-.95-4.04a122.298 122.298 0 0 1-.107-.465 1041.117 1041.117 0 0 0-1.372-5.96c-.924-3.972-1.861-7.944-2.769-11.933a694.342 694.342 0 0 0-1.037-4.472 694.713 694.713 0 0 1-1.037-4.474c-.04-.17-.076-.342-.113-.512a22.447 22.447 0 0 0-.302-1.273 52.234 52.234 0 0 1-.156-.573 50.632 50.632 0 0 1-1.13-5.417 60.546 60.546 0 0 1-.191-1.345 32.085 32.085 0 0 1-.222-1.988c-.048-.695-.106-1.4-.087-2.094a15.5 15.5 0 0 1 .339-2.68 16.517 16.517 0 0 1 .279-1.113 10.48 10.48 0 0 1 .66-1.747 5.834 5.834 0 0 1 .546-.897c.074-.092.139-.202.237-.27a.396.396 0 0 1 .014-.01 8.087 8.087 0 0 0-.148 1.554c0 1.32.308 2.562.746 3.522a10.194 10.194 0 0 0 2.33 3.237 12.37 12.37 0 0 0 1.029.865 6.897 6.897 0 0 1 .055.04l.735.562a53.706 53.706 0 0 0 .06.044c1.698 1.265 3.444 2.548 5.133 3.803.097.07.192.143.288.214a10.197 10.197 0 0 0 .58.413 11.548 11.548 0 0 1 .86.627 21.873 21.873 0 0 1 4.294 4.642c.763 1.149 1.477 2.5 1.901 4.063.415 1.496.58 3.648.107 5.27a26.387 26.387 0 0 0 .435.47l.318.336a32.468 32.468 0 0 1 .569.612 9.908 9.908 0 0 1 .388.457 61.459 61.459 0 0 1 .19.238 27.155 27.155 0 0 1 2.393 3.432 24.245 24.245 0 0 1 .184.322c1.116 1.995 2.01 4.381 2.193 7.231a16.703 16.703 0 0 1 .027.557c.031.975-.045 1.93-.182 2.826a18.186 18.186 0 0 1-.107.63 16.877 16.877 0 0 1-.19.908 7.876 7.876 0 0 1-.032.124 35.038 35.038 0 0 1-.855 2.644 18.214 18.214 0 0 1-.458 1.11 18.899 18.899 0 0 1-2.073 3.597 12.652 12.652 0 0 1-.88 1.045 11.397 11.397 0 0 1-.843.814 10.171 10.171 0 0 1-.132.112c-.096.077-.328.242-.337.328a5.555 5.555 0 0 0-.044.358 5.556 5.556 0 0 1-.043.357c-.044.352-.082.711-.122 1.07a41.966 41.966 0 0 1-.13 1.072 33.296 33.296 0 0 1-1.238 5.707 27.038 27.038 0 0 1-2.795 6.154 16.372 16.372 0 0 1-.419.639 42.681 42.681 0 0 1-.218.316 16.257 16.257 0 0 0-.26.377 10.778 10.778 0 0 1-.396.56 20.147 20.147 0 0 1-4.932 4.496 48.673 48.673 0 0 1-1.148.676c-.937.534-1.874 1.033-2.881 1.574a530.304 530.304 0 0 0-.053.028c-.367.193-.762.415-1.09.608a5.05 5.05 0 0 0-2.01 1.952 3.33 3.33 0 0 0-.23.567 2.65 2.65 0 0 0-.023.082c-.243.917.04 1.833.367 2.46a4.292 4.292 0 0 0 .023.044c.386.705.869 1.245 1.419 1.785Zm-.396-75.236-.01.029a3696.096 3696.096 0 0 0 1.272 5.566 1098.263 1098.263 0 0 1 .63 2.772 39.23 39.23 0 0 0 .46 1.816c.081.302.164.603.244.906a329.988 329.988 0 0 1 2.722 10.953 191.487 191.487 0 0 1 2.325 11.35 4162.585 4162.585 0 0 1 .113.683 76.383 76.383 0 0 1 .737 5.3 49.763 49.763 0 0 1 .241 3.62c.02.946-.007 1.897-.116 2.826 2.24.087 4.044-.463 5.491-1.274a59.465 59.465 0 0 0-.727-5.8 93.664 93.664 0 0 0-.334-1.833 30.254 30.254 0 0 0-.56-2.326c-.106-.386-.183-.782-.28-1.168-.868-3.464-1.756-6.977-2.538-10.51a13.322 13.322 0 0 0-.146-.574l-.031-.114a21.793 21.793 0 0 1-.122-.46 78.043 78.043 0 0 0-.099-.388c-.066-.26-.133-.522-.19-.78a50.698 50.698 0 0 0-.186-.776c-.319-1.293-.677-2.587-.934-3.914a43.352 43.352 0 0 1-.55-3.438 26.147 26.147 0 0 1-.135-1.667 24.409 24.409 0 0 1-.024-.716c-.02-1.114.04-2.23.222-3.244a9.527 9.527 0 0 1 .304-1.242c-2.529-1.93-5.144-3.773-7.779-5.597Zm-16.753 14.978-.29.57a2.498 2.498 0 0 0-.135.28 80.967 80.967 0 0 1-.322.675c-.16.334-.315.667-.46 1.032a18.552 18.552 0 0 0-.849 2.5c-.106.453-.154.955-.232 1.447-.193 1.313-.029 2.683.27 3.726a6.773 6.773 0 0 0 .044.135c.119.353.277.745.334.882a4.591 4.591 0 0 0 .018.044c.936 2.143 2.538 3.754 4.575 4.758 1.09.53 2.432.946 3.966 1.013a8.642 8.642 0 0 0 .399.01 8.573 8.573 0 0 0 2.863-.492c.309-.107.608-.203.878-.367a1746.104 1746.104 0 0 1-2.262-10.108 3499.154 3499.154 0 0 0-1.125-5.063c-2.847.29-4.44 1.843-5.376 4.044a7.597 7.597 0 0 0-.42 1.254c-.086.376-.14.782-.14 1.228a5.569 5.569 0 0 0 0 .104.66.66 0 0 0 .139-.142l.054-.07a1.215 1.215 0 0 1 .049-.058 2.387 2.387 0 0 1 .632-.476 2.66 2.66 0 0 1 .343-.151 2.137 2.137 0 0 1 .488-.119 2.636 2.636 0 0 1 1.086.087 1.842 1.842 0 0 1 .211.08 2.493 2.493 0 0 1 .868.668c.434.52.687 1.253.454 2.111a2.291 2.291 0 0 1-.308.694 2.425 2.425 0 0 1-.55.58 2.487 2.487 0 0 1-.599.326 2.292 2.292 0 0 1-.81.15 2.3 2.3 0 0 1-.232-.013 2.585 2.585 0 0 1-.673-.164 2.736 2.736 0 0 1-.794-.492c-.737-.651-1.142-1.739-1.3-2.934a8.415 8.415 0 0 1-.003-.029 5.996 5.996 0 0 1-.04-.693c0-.414.042-.82.117-1.237a8.738 8.738 0 0 1 .536-1.87 7.201 7.201 0 0 1 .642-1.218 7.182 7.182 0 0 1 3.34-2.67 9.039 9.039 0 0 1 1.514-.457c.145-.029.299-.038.434-.106-.618-2.876-1.254-5.82-1.862-8.734-.126.145-.28.377-.415.58-1.853 2.75-3.571 5.626-5.057 8.685Zm30.891 30.91-.202.068c-1.515.676-3.35 1.11-5.569 1.014a61.21 61.21 0 0 0-.169.578 35.342 35.342 0 0 1-.169.57 22.471 22.471 0 0 1-1.058 2.79 15.529 15.529 0 0 1-.206.424 15.289 15.289 0 0 1-8.26 7.895 15.366 15.366 0 0 1-1.014.346l-.27.068c-.155.058-.31.164-.454.241a14.907 14.907 0 0 1-2.603 1.034 15.779 15.779 0 0 1-.968.25 10.056 10.056 0 0 1-1.218.187c-1.28.12-2.662.018-3.626-.41a18.484 18.484 0 0 1 .114 1.157c.017.283.023.572.011.86-.029.705-.096 1.38-.202 1.98a14.586 14.586 0 0 1-.513 1.96 16.686 16.686 0 0 1-.53 1.369c1.97-.058 3.822-.251 5.54-.599a51.32 51.32 0 0 0 2.357-.54 183.846 183.846 0 0 0 .152-.039c.82-.202 1.582-.463 2.345-.752a26.81 26.81 0 0 0 2.152-.937 46.865 46.865 0 0 0 5.547-3.115 21.662 21.662 0 0 0 .36-.253c1.167-.849 2.296-1.824 3.27-2.904.985-1.081 1.96-2.172 2.761-3.436a16.335 16.335 0 0 0 1.499-2.946 16.276 16.276 0 0 0 .44-1.3c.346-1.178.557-2.528.56-4.048a16.63 16.63 0 0 0 0-.035 6.992 6.992 0 0 0-.02-.49c-.022-.326-.057-.652-.057-.986Zm-2.123-27.639v.03a357.545 357.545 0 0 1 .522 1.902 230.164 230.164 0 0 1 1.717 6.696 611.491 611.491 0 0 0 .175.726 92.684 92.684 0 0 1 .51 2.198c.628 2.937 1.264 5.93 1.578 9.08a44.42 44.42 0 0 1 .015.146 110.124 110.124 0 0 0 .057.576c.08.79.161 1.596.161 2.438a12.489 12.489 0 0 1-.006.403l.068-.03.212-.221c.695-.686 1.226-1.458 1.718-2.336a16.266 16.266 0 0 0 1.399-3.233 14.427 14.427 0 0 0 .448-1.97 13.305 13.305 0 0 0 .16-2.025c.006-.91-.088-1.784-.25-2.604a13.667 13.667 0 0 0-.348-1.372c-.367-1.168-.879-2.2-1.429-3.204a6.443 6.443 0 0 1-.177-.354 3.746 3.746 0 0 0-.218-.409 13.139 13.139 0 0 0-1.184-1.589 105.327 105.327 0 0 0-.322-.38 35.689 35.689 0 0 0-4.108-3.885 239.235 239.235 0 0 0-.698-.583Zm-19.764-23.952a17.14 17.14 0 0 0 .297-1.869 14.908 14.908 0 0 0-.017-3.391c-.391-3.107-1.656-5.43-3.245-7.33a18.452 18.452 0 0 0-.423-.487c-.424 1.303-.415 3.05-.337 4.651a29.663 29.663 0 0 0 .212 2.307 64.381 64.381 0 0 0 .297 2.068 49.335 49.335 0 0 0 .021.132 62.139 62.139 0 0 0 .709 3.416 622.987 622.987 0 0 1 .17.744c.103.46.204.921.306 1.381a185.783 185.783 0 0 0 .62 2.73 24.32 24.32 0 0 0 1.11-3.193 22.58 22.58 0 0 0 .28-1.16Zm6.832 31.528a6.955 6.955 0 0 0 .31-1.969 9.817 9.817 0 0 0-.187-1.95 8.015 8.015 0 0 0-.026-.124 6.446 6.446 0 0 0-.539-1.579 7.528 7.528 0 0 0-.967-1.471 8.176 8.176 0 0 0-2.5-2.085 8.746 8.746 0 0 0-.116-.057 3.78 3.78 0 0 0-.24-.107 840.635 840.635 0 0 0 .76 3.493l.128.58a454.216 454.216 0 0 1 1.746 8.193 9.117 9.117 0 0 0 1.258-1.942 7.129 7.129 0 0 0 .373-.982Zm16.406-9.728.155.097a10.528 10.528 0 0 0-.754-2.842c-.622-1.472-1.525-2.688-2.492-3.78a25.493 25.493 0 0 0-.093-.105c-1.226-1.38-2.75-2.49-4.227-3.628a14.231 14.231 0 0 0 .8 2.862 12.352 12.352 0 0 0 1.989 3.343 13.543 13.543 0 0 0 1.662 1.603c.217.184.436.37.654.559.538.469 1.1.913 1.652 1.357a49.831 49.831 0 0 1 .654.534Zm-15.827 36.345a2.667 2.667 0 0 0 .001.005c.02.143.048.266.038.371a.246.246 0 0 1-.01.037c-.04.126-.18.302-.24.407a6.383 6.383 0 0 1-1.66 1.853c-.261.183-.618.386-.956.444a.458.458 0 0 1-.007 0 2.197 2.197 0 0 1-.495.01 2.437 2.437 0 0 1-.31-.071 3.936 3.936 0 0 1-.829-.373 3.672 3.672 0 0 1-1.406-1.369 4.216 4.216 0 0 1-.437-1.112 1.84 1.84 0 0 0-.016-.058c-.02-.073-.045-.146-.055-.205a.312.312 0 0 1-.006-.055c.008-.056.056-.146.094-.225a1.497 1.497 0 0 0 .021-.045 6.64 6.64 0 0 1 .306-.612 5.513 5.513 0 0 1 .717-1 5.455 5.455 0 0 1 .35-.35c.27-.24.57-.444.95-.573a2.878 2.878 0 0 1 .67-.139 2.104 2.104 0 0 1 .095-.006c.3-.015.6.033.868.11a3.179 3.179 0 0 1 .445.167 3.1 3.1 0 0 1 1.574 1.649 4.41 4.41 0 0 1 .298 1.14Zm-7.618-31.359v-.003" fill="#fff" fill-rule="evenodd" data-name="Path 49"/><path d="m958.451 4465.098-.077-1.264-.02-1.573v-3.021l.02-1.245 3.677 3.928 2.171 2.403c.137.156.304.351.502.58a75.547 75.547 0 0 0 .309.356h.183l-.038-1.486.038-2.963.126-3.136.058-1.303.019-.155.02-.154a4.017 4.017 0 0 1-.1.016c-.09.014-.156.02-.202.022a.674.674 0 0 1-.027 0 3.4 3.4 0 0 1-.112-.001 5.787 5.787 0 0 1-.467-.037l.02.106.038 1.052v4.237c0 .646-.01 1.128-.039 1.446a15.51 15.51 0 0 1 0 .001l-.077-.086-6.514-6.959h-.222v4.42l-.097 3.079c-.01.376-.048.955-.096 1.737.075-.022.179-.033.32-.037a5.091 5.091 0 0 1 .133-.002c.168 0 .303.007.4.026a.571.571 0 0 1 .054.013Zm21.868-8.425-.077-.048-.087-.058a7.485 7.485 0 0 0-1.013-.369 6.37 6.37 0 0 0-.521-.123 7.866 7.866 0 0 0-.874-.115 10.275 10.275 0 0 0-.796-.03c-.994 0-1.882.183-2.663.54a4.136 4.136 0 0 0-1.834 1.612 4.347 4.347 0 0 0-.587 1.583 5.795 5.795 0 0 0-.079.974 7.44 7.44 0 0 0 .055.938c.041.32.105.612.191.878a3.364 3.364 0 0 0 .227.54 4.694 4.694 0 0 0 .685.93 3.563 3.563 0 0 0 1.14.806 5.793 5.793 0 0 0 2.34.574 6.796 6.796 0 0 0 .265.005 11.163 11.163 0 0 0 3.59-.598v-2.027l.048-1.322v-.395a.472.472 0 0 1-.09.032c-.098.026-.24.041-.427.044a4.085 4.085 0 0 1-.062 0 8.44 8.44 0 0 1-.637-.038c.02.187.032.45.036.78a31.156 31.156 0 0 1 .003.417v2.152a3.77 3.77 0 0 1-.95.326 5.401 5.401 0 0 1-.884.103 6.906 6.906 0 0 1-.27.005 5.084 5.084 0 0 1-1.195-.132c-.674-.163-1.233-.476-1.671-.939a3.702 3.702 0 0 1-.644-.975 4.293 4.293 0 0 1-.177-.453 5.549 5.549 0 0 1-.28-1.737 5.629 5.629 0 0 1 .13-1.243 3.805 3.805 0 0 1 .836-1.691 3.598 3.598 0 0 1 1.283-.917 3.973 3.973 0 0 1 1.563-.318 4.007 4.007 0 0 1 1.641.347c.521.232.965.56 1.332.984h.145v-.01a3.091 3.091 0 0 1 0-.004c.024-.085.06-.2.102-.351a12.968 12.968 0 0 0 .033-.117 7.07 7.07 0 0 1 .065-.234c.036-.122.072-.23.108-.326Zm43.052 0-.077-.048-.087-.058a7.529 7.529 0 0 0-1.018-.369 6.623 6.623 0 0 0-.517-.123 7.867 7.867 0 0 0-.873-.115 10.275 10.275 0 0 0-.796-.03 7.01 7.01 0 0 0-1.484.151 5.76 5.76 0 0 0-1.18.39 4.136 4.136 0 0 0-1.833 1.611 4.347 4.347 0 0 0-.588 1.583 5.795 5.795 0 0 0-.078.974c0 .705.08 1.31.246 1.816a3.364 3.364 0 0 0 .227.54 4.932 4.932 0 0 0 .668.908 3.546 3.546 0 0 0 1.156.828 5.793 5.793 0 0 0 2.341.574 6.796 6.796 0 0 0 .264.005 11.12 11.12 0 0 0 3.59-.598v-2.027l.049-1.322v-.395a.472.472 0 0 1-.09.032c-.099.026-.241.041-.428.044a4.085 4.085 0 0 1-.061 0 2.575 2.575 0 0 1-.08 0c-.115-.004-.301-.015-.557-.038a4.452 4.452 0 0 1 .018.222c.01.156.015.342.018.557a31.18 31.18 0 0 1 .002.418v2.152a3.77 3.77 0 0 1-.95.326 5.401 5.401 0 0 1-.883.103 6.906 6.906 0 0 1-.27.005 5.08 5.08 0 0 1-1.169-.126 3.366 3.366 0 0 1-1.698-.945 3.702 3.702 0 0 1-.643-.975 4.293 4.293 0 0 1-.177-.453 5.549 5.549 0 0 1-.28-1.737 5.629 5.629 0 0 1 .13-1.243 3.805 3.805 0 0 1 .835-1.691 3.551 3.551 0 0 1 1.293-.917 3.973 3.973 0 0 1 1.564-.318 4.007 4.007 0 0 1 1.64.347c.521.232.965.56 1.332.984h.135v-.01a3.091 3.091 0 0 1 .001-.004c.023-.084.058-.197.1-.344a12.997 12.997 0 0 0 .034-.124 7.067 7.067 0 0 1 .065-.234c.023-.076.046-.147.068-.213a4.336 4.336 0 0 1 .041-.113Zm-28.547 4.661.126-3.657a9.547 9.547 0 0 1 0-.008c.01-.167.026-.403.043-.702a44.322 44.322 0 0 0 .005-.091 42.354 42.354 0 0 0 .02-.252c.012-.162.02-.3.025-.416a3.807 3.807 0 0 0 .003-.143c-.077.029-.212.039-.395.039a5.96 5.96 0 0 0-.433-.037 2.461 2.461 0 0 0-.097-.002l.037 1.197a43.69 43.69 0 0 1 .019.443c.015.414.02.744.02.975 0 .174 0 .435-.01.763-.007.258-.009.466-.01.627a52.097 52.097 0 0 0 0 .135c-.017.639-.034 1.17-.065 1.592a10.92 10.92 0 0 1-.011.145 4.6 4.6 0 0 1-.122.733 3.543 3.543 0 0 1-.149.454 2.536 2.536 0 0 1-.926 1.11 1.746 1.746 0 0 1-.234.133c-.087.041-.182.08-.285.116a3.943 3.943 0 0 1-.224.07 3.865 3.865 0 0 1-.736.113 2.579 2.579 0 0 1-.113.002 3.866 3.866 0 0 1-.872-.093 2.904 2.904 0 0 1-1.02-.447 2.159 2.159 0 0 1-.801-1.072 3.257 3.257 0 0 1-.145-.559 6.187 6.187 0 0 1-.067-.497 9.011 9.011 0 0 1-.039-.864 23.634 23.634 0 0 1 0-.099c0-.111.002-.258.01-.432a10.774 10.774 0 0 0 .005-.164c.004-.139.004-.252.004-.332a54.257 54.257 0 0 0 0-.025l.068-2.808.039-.888c0-.117.005-.207.012-.277a2.343 2.343 0 0 1 .007-.06l-.184.019-.222.029-.173.01a.56.56 0 0 1-.03-.002c-.036-.002-.082-.006-.14-.008a1.485 1.485 0 0 0-.043 0 55.915 55.915 0 0 1-.163-.017l-.102-.01a10.757 10.757 0 0 1-.014-.002c-.086-.009-.149-.018-.19-.02a.313.313 0 0 0-.013 0l.039.357.038 2.066v1.428l-.048 1.477a9.711 9.711 0 0 0 .03.796c.03.343.077.656.144.94a2.353 2.353 0 0 0 .733 1.236c.198.175.366.302.5.381a1.145 1.145 0 0 0 .098.053c.605.316 1.334.48 2.18.492a7.093 7.093 0 0 0 .098 0 4.929 4.929 0 0 0 1.183-.134 3.402 3.402 0 0 0 1.625-.898c.328-.3.57-.734.743-1.303a2.621 2.621 0 0 0 .095-.339c.053-.25.092-.558.113-.923a11.14 11.14 0 0 0 .014-.35Zm36.818-5.25-1.429-.038c.041.832.062 1.362.067 1.601a4.89 4.89 0 0 1 0 .097l.02 1.158-.02 4.526-.086 1.65a27.064 27.064 0 0 0 .106 0c.119 0 .273-.002.454-.009.25-.01.424-.01.53-.01a29.758 29.758 0 0 0 .113 0c.085 0 .186-.001.304-.004a13.905 13.905 0 0 0 .172-.005c.26-.01.454-.01.58-.01.375 0 .915.02 1.628.039a132.893 132.893 0 0 0 .002 0l.917.019a12.028 12.028 0 0 1 0-.002 14.14 14.14 0 0 1-.018-.56 17.699 17.699 0 0 1-.001-.23c-.425.078-.82.107-1.197.107a48.757 48.757 0 0 1-1.424.048 48.674 48.674 0 0 1-.95.01 20.676 20.676 0 0 1 0-.003c-.01-.26-.02-.645-.02-1.155v-2.703h1.323l.724.02a5.986 5.986 0 0 1 .302.008c.244.013.537.039.875.079a58.255 58.255 0 0 1-.014-.089 12.9 12.9 0 0 1-.043-.3.076.076 0 0 1 0-.007c0-.008.014-.112.043-.305a57.86 57.86 0 0 1 .014-.09 8.902 8.902 0 0 1-.112.007c-.085.004-.186.01-.305.014a34.388 34.388 0 0 1-.172.007 9.605 9.605 0 0 0-.125.006c-.155.007-.285.017-.388.021a2.176 2.176 0 0 1-.085.002l-.705.039h-1.341v-1.342l.058-1.978h.975l1.322.039a10.904 10.904 0 0 1 .306.02c.108.008.22.018.33.028a9.106 9.106 0 0 1 .002 0c.23.02.404.038.54.038a.584.584 0 0 1-.023-.093 1.535 1.535 0 0 1-.015-.192 3.85 3.85 0 0 1-.001-.11l.019-.203.02-.183a42.366 42.366 0 0 1-.428.018c-.398.015-.71.02-.934.02h-1.91Zm-132.234-.038v.328l.078 2.567-.058 4.632a36.042 36.042 0 0 1-.022.52 12.478 12.478 0 0 1-.017.262c-.01.27-.02.511-.02.743a8.834 8.834 0 0 1 .198-.018 6.33 6.33 0 0 1 .327-.019 3.968 3.968 0 0 1 .113-.002c.145 0 .347.01.598.039l-.039-2.75V4460.717h.493l1.052 1.235 1.573 2.027a57.647 57.647 0 0 1 .188.257l.203.28a98.644 98.644 0 0 1 .072.1 26.835 26.835 0 0 0 .003.004c.14.194.242.332.301.418a1.435 1.435 0 0 1 .034.05c.072-.007.162-.014.271-.026a8.533 8.533 0 0 0 .115-.012 7.69 7.69 0 0 1 .114-.013c.106-.01.187-.016.252-.016a1.62 1.62 0 0 1 .073.002c.08.003.183.012.313.027.129.015.24.024.328.032a6.759 6.759 0 0 1 .068.006l-.232-.29-.636-.752-2.722-3.445a4.892 4.892 0 0 0 1.055-.305 3.727 3.727 0 0 0 .875-.515 2.018 2.018 0 0 0 .773-1.477 2.817 2.817 0 0 0 .009-.232 1.887 1.887 0 0 0-.27-1.003 1.68 1.68 0 0 0-.404-.523 1.571 1.571 0 0 0-.61-.317c-.453-.125-1.003-.193-1.65-.193l-1.766.048-1.033-.038Zm-10.278-.164-4.13 9.216a5.804 5.804 0 0 1 .156-.018c.104-.011.191-.017.262-.02a2.188 2.188 0 0 1 .074 0c.212 0 .357.01.454.038a26.083 26.083 0 0 1 .205-.612c.218-.628.53-1.473.946-2.535a120.431 120.431 0 0 1 .152-.385l1.785-.048 1.592.048.647 1.573.598 1.573.126.396a1.586 1.586 0 0 1 .132-.019 6.3 6.3 0 0 1 .592-.02 3.906 3.906 0 0 1 .117.002c.12.004.279.013.477.03a12.552 12.552 0 0 1 .071.007l-.231-.473-3.745-8.744h-.28v-.01Zm116.03 0-4.13 9.216a5.804 5.804 0 0 1 .155-.018c.105-.011.192-.017.262-.02a2.188 2.188 0 0 1 .075 0c.166 0 .291.005.384.022a.62.62 0 0 1 .07.016 23.516 23.516 0 0 1 .206-.612c.246-.702.611-1.675 1.096-2.92l1.786-.048 1.592.048.637 1.573.598 1.573.116.396a1.586 1.586 0 0 1 .132-.019c.101-.01.225-.015.37-.018a12.29 12.29 0 0 1 .222-.002 3.906 3.906 0 0 1 .118.002c.12.004.278.013.476.03a12.554 12.554 0 0 1 .072.007l-.232-.473-3.744-8.744h-.26v-.01Zm-57.894 0-4.13 9.216a5.803 5.803 0 0 1 .155-.018c.104-.011.192-.017.262-.02a2.188 2.188 0 0 1 .075 0c.167 0 .302.006.398.025a.571.571 0 0 1 .055.013 23.515 23.515 0 0 1 .207-.612c.22-.628.535-1.473.947-2.535a195.548 195.548 0 0 1 .15-.385l1.784-.048 1.593.048.637 1.573.598 1.573.116.396a1.586 1.586 0 0 1 .132-.019 6.3 6.3 0 0 1 .592-.02 3.906 3.906 0 0 1 .117.002c.12.004.279.013.477.03a12.554 12.554 0 0 1 .072.007l-.232-.473-3.744-8.744h-.261v-.01Zm-29.377.183-1.63.058-1.65.048-1.738-.029a10.433 10.433 0 0 0-.002 0c-.193-.01-.491-.02-.886-.038a48.319 48.319 0 0 1-.009 0c-.4-.02-.697-.039-.898-.039 0 .266-.006.481-.013.65a12.683 12.683 0 0 1-.006.141l1.283-.086a3.97 3.97 0 0 1 .155-.013c.173-.012.4-.019.674-.026a70.94 70.94 0 0 1 .001 0 75.837 75.837 0 0 0 .186-.005c.266-.008.477-.015.627-.023a10.508 10.508 0 0 0 .017-.001v1.36l-.067 5.309-.058 1.38c0 .116-.006.21-.013.279a1.407 1.407 0 0 1-.007.058 3.548 3.548 0 0 1 .436-.05 4.38 4.38 0 0 1 .25-.008 1.288 1.288 0 0 1 .08.003c.066.004.145.013.238.026.135.02.232.03.3.039l-.02-.077-.077-1.332v-5.27l.038-1.38c0-.103.006-.19.013-.254a1.548 1.548 0 0 1 .007-.054H916.143l1.37.125a1.261 1.261 0 0 1 .067.002c.051.003.114.009.19.019a3.748 3.748 0 0 1 .12.018 3.211 3.211 0 0 1-.04-.398 1.064 1.064 0 0 1 0-.017c0-.102.01-.23.036-.393a3.598 3.598 0 0 1 .003-.022Zm16.233 2.027.087-2.027H932.944a18.255 18.255 0 0 1 .067 1.463 24.958 24.958 0 0 1 .001.216v5.684l-.087 1.65a27.061 27.061 0 0 0 .107 0c.118 0 .272-.002.453-.009.25-.01.424-.01.53-.01a29.758 29.758 0 0 0 .113 0c.085 0 .186-.001.304-.004a13.904 13.904 0 0 0 .172-.005c.26-.01.454-.01.58-.01.376 0 .916.02 1.63.039l.956.019a3.353 3.353 0 0 1-.038-.365.962.962 0 0 1 0-.03 1.746 1.746 0 0 1 .002-.1c.004-.07.013-.154.028-.249a2.928 2.928 0 0 1 .008-.047c-.676.077-1.1.106-1.264.106-.792.038-1.583.058-2.394.058 0-.104 0-.241-.004-.412a12.668 12.668 0 0 0-.006-.167c-.007-.192-.009-.35-.009-.475a31.155 31.155 0 0 1 0-.104v-1.641h-.01a7.093 7.093 0 0 0 0-.102c-.003-.132-.007-.305-.009-.52a20.573 20.573 0 0 1 0-.16 24.545 24.545 0 0 1-.006-.244 25.874 25.874 0 0 1-.004-.405 57.293 57.293 0 0 1 0-.142 34.597 34.597 0 0 1 .057-2.001 49.736 49.736 0 0 1 0-.006Zm-33.584 2.142.038-3.648c.232-.02.598-.02 1.09-.02a21.277 21.277 0 0 1 .27.003c.223.002.397.008.52.015a6.597 6.597 0 0 1 .04.002c.435.077.773.241 1.014.502a1.435 1.435 0 0 1 .392.74 2.127 2.127 0 0 1 .042.437c0 .502-.154.908-.463 1.245a2.188 2.188 0 0 1-.784.527 2.92 2.92 0 0 1-.451.14 8.043 8.043 0 0 1-.915.074 7.443 7.443 0 0 1-.176.002 8 8 0 0 1-.058 0c-.04 0-.088 0-.144-.003a3.68 3.68 0 0 1-.107-.006 3.68 3.68 0 0 0-.095-.006 4.053 4.053 0 0 0-.16-.004 8.378 8.378 0 0 0-.053 0Zm-11.446.772H887.5l1.447-3.387 1.467 3.387h-1.322Zm116.03 0h-1.593l1.438-3.387 1.467 3.387h-1.312Zm-57.895 0h-1.592l1.438-3.387 1.467 3.387h-1.313Z" fill="#fff" fill-rule="evenodd" data-name="Path 50"/></g></svg>