<svg xmlns="http://www.w3.org/2000/svg" width="342.776" height="539.347" viewBox="1471.556 4120.816 342.776 539.347"><path d="M1814.666 4437.441a66.938 66.938 0 0 0-.035-2.167 84.15 84.15 0 0 0-.063-1.52 81.456 81.456 0 0 0-3.09-18.535 89.801 89.801 0 0 0-7.99-18.943 115.382 115.382 0 0 0-.727-1.287 130.712 130.712 0 0 0-12.117-17.439c-.944-1.17-1.891-2.367-2.888-3.457a230.146 230.146 0 0 0-2.73-2.913c-1.315-1.387-2.63-2.769-3.872-4.154 1.79-6.129 1.748-13.806.728-20.41a52.775 52.775 0 0 0-1.245-5.898 63.734 63.734 0 0 0-3.513-9.629 76.504 76.504 0 0 0-5.978-10.643 108.347 108.347 0 0 0-21.458-23.164 48.511 48.511 0 0 0-4.282-3.145 61.017 61.017 0 0 1-2.895-2.074c-.478-.358-.956-.718-1.438-1.073a16228.76 16228.76 0 0 1-12.395-9.14 2334.502 2334.502 0 0 1-13.241-9.843 96.997 96.997 0 0 1-.023-.018c-.933-.698-3.013-2.28-3.937-2.977a101.447 101.447 0 0 0-.27-.204 60.129 60.129 0 0 1-6.23-5.38 50.877 50.877 0 0 1-10.535-15.1 40.512 40.512 0 0 1-2.42-7.023c-1.368-5.523-1.806-11.909-.574-18.295a39.712 39.712 0 0 1 .002-.009c-.527.332-.871.893-1.238 1.393a29.886 29.886 0 0 0-2.737 4.483 51.143 51.143 0 0 0-3.298 8.722 81.727 81.727 0 0 0-1.402 5.555 76.465 76.465 0 0 0-1.693 13.376 48.65 48.65 0 0 0-.028 1.678c0 2.538.178 5.086.357 7.604a809.348 809.348 0 0 1 .084 1.191 154.063 154.063 0 0 0 .952 8.892 4106.296 4106.296 0 0 0 .13 1.012c1.72 13.27 4.099 24.876 7.377 36.625a100.489 100.489 0 0 1 1.406 5.92l.065.3a238.452 238.452 0 0 0 .593 2.705 3897.84 3897.84 0 0 0 5.28 22.765 4202.89 4202.89 0 0 1 5.088 21.908c5.415 23.716 11.029 47.344 16.488 70.972a4468.012 4468.012 0 0 1 4.196 18.323c4.03 17.779 8.999 35.45 10.833 55.247a56.36 56.36 0 0 1-9.114-3.095 70.346 70.346 0 0 1-14.562-8.77.91.91 0 0 0-.025-.019c-.19-.139-.472-.244-.544-.496a25.753 25.753 0 0 0 1.106.158c2.325.279 4.47.186 6.323-.468a11.256 11.256 0 0 0 5.902-4.618 12.003 12.003 0 0 0 1.681-4.719 12.126 12.126 0 0 0 .032-.24c.64-5.18-2.282-9.2-5.397-11.109a9.701 9.701 0 0 0-.232-.138c-1.353-.782-3.577-1.661-5.604-1.661a6.287 6.287 0 0 0-.767.045 16.277 16.277 0 0 0-3.118.676 10.795 10.795 0 0 0-6.837 6.288 11.92 11.92 0 0 0-.978 4.736 12.318 12.318 0 0 0 .255 2.487 24.488 24.488 0 0 0 1.445 4.649 22.255 22.255 0 0 0 4.281 6.544 271.672 271.672 0 0 0 .55.584 42.598 42.598 0 0 0 3.732 3.595 63.848 63.848 0 0 0 5.467 4.034 55.964 55.964 0 0 0 13.567 6.541 20.365 20.365 0 0 0 1.049.294c.743.195 1.498.389 2.201.738a13.094 13.094 0 0 1 0 .012c.027 2.28-.516 7.79-.636 8.448-5.537 9.406-12.157 18.089-20.565 24.554-2.836 2.177-5.863 4.173-9.337 5.624a46.32 46.32 0 0 0 3.131-8.078 39.014 39.014 0 0 0 1.253-6.882c.518-5.628-.226-10.526-1.908-14.616a22.751 22.751 0 0 0-10.316-11.538 14.335 14.335 0 0 0-1.523-.71 17.78 17.78 0 0 0-6.163-1.2 15.36 15.36 0 0 0-.323-.003c-2.858 0-5.312.802-7.466 1.913-4.121 2.12-7.32 5.548-9.956 9.388a41.572 41.572 0 0 0-.253.372c-1.241 1.846-2.26 3.693-3.152 5.921a86.345 86.345 0 0 0-.49 1.252c-2.27 5.94-4.153 12.915-4.153 20.847a50.023 50.023 0 0 0 .053 2.3c.14 3.068.599 5.899 1.336 8.466a27.357 27.357 0 0 0 2.894 6.702.116.116 0 0 0-.003 0c-.054.012-.078.058-.1.102a16.085 16.085 0 0 1-3.346 1.146c-3.023.704-6.564.819-9.85.487a31.649 31.649 0 0 1-3.982-.652 35.181 35.181 0 0 1-7.325-2.631 69.203 69.203 0 0 1-.63-.314 29.686 29.686 0 0 1-2.287-1.263 11.485 11.485 0 0 1-2.963-2.498 18.321 18.321 0 0 1-1.163-1.643c-2.116-3.365-3.238-7.559-3.238-12.637a35.614 35.614 0 0 1 .016-1.042 37.212 37.212 0 0 1 .004-.128c.204-6.207 1.929-11.332 3.762-16.017a21.899 21.899 0 0 0-5.623 4.436c-4.825 4.997-8.098 12.684-7.067 22.543-5.577-3.445-12.402-6.523-21.252-6.397-4.6.064-8.843.764-12.714 1.86a53.077 53.077 0 0 0-9.363 3.66.051.051 0 0 1-.008.007c-.054.047-.298.14-.12.147a.596.596 0 0 0 .024 0c4.792-.75 9.91-1.02 14.547-.619a53.421 53.421 0 0 1 .438.04c4.51.423 8.567 1.387 12.194 2.812a35.866 35.866 0 0 1 17.441 14.428 44.697 44.697 0 0 1 3.554 6.826 46.064 46.064 0 0 1 2.945 10.353 42.424 42.424 0 0 1 .245 1.731c.214 1.779.319 3.636.271 5.594-.12 4.987-1.3 9.217-2.58 13.206a40.186 40.186 0 0 1-.973 2.715 31.443 31.443 0 0 1-4.39 7.758 211.948 211.948 0 0 1-1.476-.21 188.354 188.354 0 0 1-4.25-.668 42.497 42.497 0 0 1-4.484-1.01c-3.659-1.029-6.949-2.44-10.183-3.853a908.475 908.475 0 0 1-.085-.037 105.556 105.556 0 0 1-1.26-.56 41.084 41.084 0 0 1-14.474-9.86c3.714 1.965 8.121 1.414 11.378-.18a11.607 11.607 0 0 0 2.86-1.936 12.802 12.802 0 0 0 1.576-1.8 11.89 11.89 0 0 0 1.93-4.132 11.8 11.8 0 0 0 .331-2.79v-.033a11.933 11.933 0 0 0-1.156-5.121 13.115 13.115 0 0 0-.91-1.597c-2.081-3.116-5.596-5.428-10.464-5.428a15.674 15.674 0 0 0-.542.01 12.31 12.31 0 0 0-4.034.834 12.693 12.693 0 0 0-2.98 1.642 12.702 12.702 0 0 0-1.652 1.472 11.29 11.29 0 0 0-2.991 5.698 16.025 16.025 0 0 0-.068.42 19.018 19.018 0 0 0-.186 3.201 17.967 17.967 0 0 0 .305 2.93c.493 2.54 1.766 4.78 2.89 6.603 2.423 3.926 6 6.792 9.696 9.234 7.687 5.073 16.817 8.477 26.98 10.937a3.006 3.006 0 0 1-.046.072c-.393.617-1.002 1.087-1.554 1.578a38.486 38.486 0 0 1-5.83 4.332 37.293 37.293 0 0 1-.515.302 38.685 38.685 0 0 1-19.277 5.138 39.16 39.16 0 0 1-1.357-.023 42.215 42.215 0 0 1-3.612-.28 43.445 43.445 0 0 1-7.942-1.731 43.41 43.41 0 0 1-5.033-1.953 40.972 40.972 0 0 1-11.835-8.26 41.174 41.174 0 0 1-4.596-5.448 41.308 41.308 0 0 1-4.74-8.946 4.729 4.729 0 0 1-.046-.122c-.146-.41-.262-.885-.417-1.293a2.848 2.848 0 0 0-.208-.442c-.054-.091-.139-.085-.209-.119a.168.168 0 0 1-.05-.036.143.143 0 0 1-.008-.01c-.057-.084-.04-.235-.094-.35-.7-1.543-1.003-3.537-1.29-5.468-.637-4.35-.712-9.44-.368-14.117a66.706 66.706 0 0 1 .523-4.816 124.19 124.19 0 0 1 4.943-20.85 219.238 219.238 0 0 1 17.703-37.854 23.787 23.787 0 0 0 4.677 3.578 25.43 25.43 0 0 0 6.362 2.612c4.849 1.28 10.338 1.28 15.267.258 8.936-1.856 15.82-5.731 22.233-10.11a6.34 6.34 0 0 0 .395-.3c.361-.29.71-.579 1.051-.579a.592.592 0 0 1 .05.002c1.38.103 3.004.327 4.54.206.42-.033.841-.062 1.263-.092a46.05 46.05 0 0 0 2.966-.269 68.915 68.915 0 0 0 10.205-2.193 71.284 71.284 0 0 0 11.203-4.41 92.037 92.037 0 0 0 2.427-1.235 61.947 61.947 0 0 0 9.178-5.833 43.758 43.758 0 0 0 8.577-9.499 72.27 72.27 0 0 0 .244-.353 64.594 64.594 0 0 0 5.265-9.288 90.557 90.557 0 0 0 5.826-16.97 116.926 116.926 0 0 0 2.568-15.02 155.786 155.786 0 0 0 .836-16.6 7.299 7.299 0 0 0 0-.094c-.01-.784-.138-1.701 0-2.28a.58.58 0 0 1 .063-.149c.144-.251.473-.5.759-.743a5.25 5.25 0 0 0 .158-.14 46.488 46.488 0 0 0 3.302-3.376 46.669 46.669 0 0 0 8.923-15.039 57.472 57.472 0 0 0 1.794-5.874 41.863 41.863 0 0 0 1.147-7.488c.105-1.774.138-3.575.094-5.377a58.935 58.935 0 0 0-1.023-9.737 49.069 49.069 0 0 0-3.122-10.212 41.19 41.19 0 0 0-11.785-15.684 83.006 83.006 0 0 0-4.097-3.115 177.206 177.206 0 0 0-.546-.392 25.776 25.776 0 0 0-3.255-1.97 42.94 42.94 0 0 0-8.403-3.136c-.32-.625-.384-1.503-.567-2.323a341.852 341.852 0 0 0-.586-2.585 408.709 408.709 0 0 1-.807-3.553 5282.323 5282.323 0 0 0-5.468-24.71 5689.103 5689.103 0 0 1-2.666-12.02 3148.235 3148.235 0 0 0-3.73-16.712 65.551 65.551 0 0 0-.315-1.3 30.533 30.533 0 0 1-.613-2.827 2.544 2.544 0 0 1-.006-.043.702.702 0 0 1 .001-.239 9.098 9.098 0 0 1 .005-.028 1.918 1.918 0 0 1 .041-.202c.18-.688.745-1.562 1.158-2.315a8.463 8.463 0 0 0 .245-.475c3.353-7.147 6.505-14.472 8.924-22.284a150.217 150.217 0 0 0 3.37-12.774 134.748 134.748 0 0 0 2.562-16.992 95.433 95.433 0 0 0 .34-8.13c0-3.123-.144-6.165-.392-9.047a176.333 176.333 0 0 0-.184-2.055 49.66 49.66 0 0 0-.848-5.838 50.417 50.417 0 0 0-.05-.227 71.8 71.8 0 0 0-1.91-6.737 127.28 127.28 0 0 0-2.371-6.62 107.068 107.068 0 0 0-8.874-17.83c-6.82-10.943-14.97-20.841-24.708-28.837a999.744 999.744 0 0 0-.507-.416 123.12 123.12 0 0 0-9.603-7.323 136.069 136.069 0 0 0-8.87-5.466 138.718 138.718 0 0 0-14.342-7.017 137.249 137.249 0 0 0-3.414-1.388 164.988 164.988 0 0 0-20.057-6.35c-1.22-.304-2.47-.704-3.663-.825-.356-.038-.578-.044-.76.12a.758.758 0 0 0-.117.139c.396 3.46 5.142 30.67 5.468 31.93a.744.744 0 0 0 .296.408c.338.252.9.38 1.46.514a11.402 11.402 0 0 1 .617.161 325.032 325.032 0 0 1 1.055.315 174.205 174.205 0 0 1 15.038 5.154 175.414 175.414 0 0 1 6.542 2.774 150.008 150.008 0 0 1 25.492 14.455 85.855 85.855 0 0 1 6.913 5.416c2.165 1.886 4.35 3.807 6.292 6.037a43.887 43.887 0 0 0-7.09 11.148 63.327 63.327 0 0 0-3.948 12.116c-2.035 9.056-2.546 21.379-1.032 31.622.587 3.975 1.315 7.973 2.044 11.957a2064.862 2064.862 0 0 1 .483 2.641 2456.352 2456.352 0 0 1 .676 3.743 602.955 602.955 0 0 0 2.006 10.753c.892 4.466 1.763 9.005 2.653 13.545a704.895 704.895 0 0 0 2.712 13.28c.136.63.377 1.338.366 1.734a.746.746 0 0 1-.005.07.411.411 0 0 1-.007.041c-.055.252-.355.657-.61 1.049a6.345 6.345 0 0 0-.156.252c-6.63 11.304-21.577 35.627-24.646 40.788a33.577 33.577 0 0 0-.51.875c-4.01 7.378-7.892 14.84-11.262 23.025a107.016 107.016 0 0 0-4.474 12.932 76.656 76.656 0 0 0-2.49 14.511c-.22 3.06-.096 6.023.244 8.828a56.824 56.824 0 0 0 1.252 6.75 47.213 47.213 0 0 0 1.511 4.94 52.557 52.557 0 0 0 3.39 7.39 56.079 56.079 0 0 0 16.093 18.313c6.552 4.728 14.484 8.5 24.194 10.214a43.625 43.625 0 0 0 .822.136c2.72.424 5.635.623 8.55.615a61.61 61.61 0 0 0 6.773-.39 48.614 48.614 0 0 0 3.025-.445 60.72 60.72 0 0 0 10.696-3.063.246.246 0 0 1 .008 0c.03.002.054.01.043.052a80.08 80.08 0 0 1 2.393 11.813c.54 4.2.82 8.654.82 13.327a119.372 119.372 0 0 1-.015 1.838 130.183 130.183 0 0 0-.008.67c-.005.448-.01.9-.023 1.346a16.85 16.85 0 0 1-.174 2.112c-.11.683-.768 1.266-1.29 1.857-3.536 3.96-7.411 7.565-11.71 10.523a52.641 52.641 0 0 1-8.692 4.96 36.853 36.853 0 0 1-9.052 2.675c3.07-4.46 5.195-9.864 6.768-15.819a168.584 168.584 0 0 0 3.806-21.787c-.36.253-.704.544-1.031.826a49.437 49.437 0 0 1-6.027 4.434c-8.988 5.633-20.69 9.133-34.41 9.098a83.134 83.134 0 0 1-6.504-.275c-1.123 8.082-3.782 25.626-3.765 25.947.016.31 2.372 5.755 3.352 8.357-3.685 1.496-8.173 2.889-13.412 2.889a28.345 28.345 0 0 1-1.757-.054 25.963 25.963 0 0 1-4.74-.728 20.892 20.892 0 0 1-3.664-1.282 27.374 27.374 0 0 0-.455-.206c-.804-.357-1.607-.702-2.175-1.29a351.856 351.856 0 0 0 4.54-10.822 152.848 152.848 0 0 0 6.343-19.303 204.791 204.791 0 0 0 2.316-10.166 110.847 110.847 0 0 0 2.068-16.194c.216-4.474.32-9.333-.083-13.702a37.281 37.281 0 0 0-.845-5.334 46.651 46.651 0 0 0-1.84-5.899 38.07 38.07 0 0 0-4.453-8.338c-1.41-1.982-3.1-3.611-5.056-5.21a52.096 52.096 0 0 0-4.072-3.027 44.342 44.342 0 0 0-9.626-4.89c-.331-.123-2.075-.611-2.927-.801a7.244 7.244 0 0 0-.242-.051 36.805 36.805 0 0 0-.848-.152 38.442 38.442 0 0 0-6.514-.53 29.328 29.328 0 0 0-6.566.733 19.326 19.326 0 0 0-1.957.579 28.81 28.81 0 0 0-5.161 2.516 46.525 46.525 0 0 0-15.269 15.528 115.721 115.721 0 0 1-.525.827 23.97 23.97 0 0 0-1.383 2.371 122.195 122.195 0 0 1-5.416 10.008c-.866 1.415-1.856 2.755-2.846 4.109a98.635 98.635 0 0 0-1.384 1.926c-1.404 2.018-3.015 3.908-4.54 5.726a142.238 142.238 0 0 1-21.045 19.963c-5.686 4.506-11.71 8.936-18.003 12.794-.818.498-1.627 1.053-2.466 1.609a35.266 35.266 0 0 1-2.229 1.382 8.143 8.143 0 0 1-.086.048c-.552.302-1.22.604-1.171 1.09a.56.56 0 0 0 .02.1.64.64 0 0 0 .035.094c.165.347.588.3 1.202.06a91.771 91.771 0 0 0 4.46-1.92c1.302-.597 2.561-1.193 3.743-1.742a147.33 147.33 0 0 0 3.471-1.67 151.374 151.374 0 0 0 22.011-13.444 124.151 124.151 0 0 0 14.288-12.742c1.117-1.117 2.116-2.395 3.146-3.61a61.785 61.785 0 0 0 8.203-12.124 74.033 74.033 0 0 0 .433.536c2.02 2.472 4.42 4.944 8.594 5.088 4.815.166 7.708-1.834 9.697-5.004a8.745 8.745 0 0 0 .865-1.868c.743-2.222.841-4.963.326-7.339a10.626 10.626 0 0 0-.933-2.658 12.52 12.52 0 0 0-4.334-4.904 11.418 11.418 0 0 0-3.92-1.543 26.69 26.69 0 0 1 4.645-4.529 27.096 27.096 0 0 1 7.633-4.035 20.08 20.08 0 0 1 5.894-1.035c2.396-.077 4.793.213 7.006.735a27.49 27.49 0 0 1 4.535 1.486 30.383 30.383 0 0 1 .257.112 35.953 35.953 0 0 1 4.043 2.114 39.92 39.92 0 0 1 5.294 3.81 15.362 15.362 0 0 1 2.302 2.552 50.456 50.456 0 0 1 .174.233 34.355 34.355 0 0 1 4.045 7.04 40.792 40.792 0 0 1 2.351 7.456c.924 4.264 1.233 8.95 1.149 13.637a92.729 92.729 0 0 1-.272 5.553 40.365 40.365 0 0 1-.109 1.17 70.02 70.02 0 0 1-1.386 7.754 219.361 219.361 0 0 1-.737 3.193 256.096 256.096 0 0 1-6.124 21.31c-1.748 5.267-3.633 10.306-6.138 14.753a20.92 20.92 0 0 1-3.377-4.72 60.56 60.56 0 0 1-3.845-9.62c-.36-1.088-.766-2.26-1.102-3.414a24.246 24.246 0 0 1-.445-1.744 5.388 5.388 0 0 1-.078-.54 6.126 6.126 0 0 0-.077-.544 21.102 21.102 0 0 0-.35-1.362c-.075-.269-.15-.537-.218-.804a92.956 92.956 0 0 1-1.762-9.128c-1.382-9.546-1.683-20.387-.92-30.645.155-2.1.381-4.192.381-6.258a19.892 19.892 0 0 0-.33-3.801 4.654 4.654 0 0 1-.722-.517c-.22.125-.437.234-.64.35a2.232 2.232 0 0 0-.805.683c-.58.873-.7 2.34-.874 3.58a14.41 14.41 0 0 1-.105.65 45.057 45.057 0 0 1-.185.923c-.2.95-.43 1.901-.65 2.754a69.79 69.79 0 0 1-.146.553 392.621 392.621 0 0 0-.18.682c-.678 2.56-1.355 5.18-2.192 7.417a39.777 39.777 0 0 1-.044.117 54.409 54.409 0 0 1-7.59 13.191 102.04 102.04 0 0 1-15.476 15.889 113.107 113.107 0 0 1-2.807 2.328c-.98.794-1.96 1.589-2.918 2.417a144.463 144.463 0 0 0-20.634 21.203 73.674 73.674 0 0 0-1.711 2.328 66.289 66.289 0 0 0-6.18 10.723c-2.213 4.866-4.041 10.282-4.18 16.661-.08 3.818.403 7.17 1.34 10.072a21.609 21.609 0 0 0 3.149 6.23 23.665 23.665 0 0 0 5.816 5.643 23.52 23.52 0 0 0 6.461 3.022 26.393 26.393 0 0 0 1.384.372c3.864.928 8.399 1.13 12.337.196a21.562 21.562 0 0 0 3.92-1.341c4.603-2.08 8.597-5.65 11.451-9.492a29.407 29.407 0 0 0 .807-1.14c2.454-3.65 4.536-8.49 4.92-14.026a23.46 23.46 0 0 0 .023-.384c.186-3.518-.493-6.113-1.933-8.076a7.925 7.925 0 0 0-1.053-1.173 8.15 8.15 0 0 0-6.014-2.128c-4.429.234-7.588 3.13-8.2 7.48-.677 4.804 2.722 8.42 6.188 9.336 2.826.746 5.526-.074 7.223-1.29.197-.143.391-.418.663-.416a.413.413 0 0 1 .06.004c-1.36 6.673-5.05 10.93-9.956 14.083a24.337 24.337 0 0 1-.423.265c-2.35 1.439-5.1 2.557-8.554 2.779a25.068 25.068 0 0 1-1.597.051c-3.457 0-6.496-.736-9.106-1.942a20.725 20.725 0 0 1-6.525-4.764 14.325 14.325 0 0 1-2.954-4.708 15.54 15.54 0 0 1-.864-3.545 16.297 16.297 0 0 1-.067-.635 19.269 19.269 0 0 1-.068-1.66 31.904 31.904 0 0 1 .187-3.226 56.041 56.041 0 0 1 .202-1.679 41.342 41.342 0 0 1 .624-3.53c.75-3.342 2.126-5.887 3.663-8.409a86.082 86.082 0 0 1 10.589-13.315 761.8 761.8 0 0 1 .088-.097 81.935 81.935 0 0 1 8.005-7.328l1.117-.931a161.77 161.77 0 0 0 3.619-3.089 561.819 561.819 0 0 1 3.171-2.782c3.24-2.826 6.478-5.643 9.518-8.619a505.73 505.73 0 0 1 2.043-1.988l.078-.076a112.97 112.97 0 0 0 8.97-9.388c.103-.126.194-.294.307-.438a.698.698 0 0 1 .415-.284 152.039 152.039 0 0 0-.046 3.725c0 17.82 3.237 33.022 9.95 44.508a4.85 4.85 0 0 0 .061.102c.25.403.61.887.61 1.13a.242.242 0 0 1 0 .005c-.006.19-.344.647-.609 1.057a6.708 6.708 0 0 0-.114.181 1044.752 1044.752 0 0 0-1.151 1.934 115.88 115.88 0 0 0-1.066 1.832 273.833 273.833 0 0 0-1.417 2.524 209.832 209.832 0 0 0-16.019 36.01c-2.596 7.881-4.86 16.392-6.138 25.845a78.225 78.225 0 0 0-.172 1.367c-.756 6.467-.819 13.787-.072 20.247a55.74 55.74 0 0 0 1.172 6.756.95.95 0 0 1 .004.018c.044.194.069.54.357.55 1.892 7.75 5.112 14.181 9.544 19.397.33.387.682.764 1.034 1.142a26.582 26.582 0 0 1 1.235 1.385 34.581 34.581 0 0 0 2.515 2.787 45.64 45.64 0 0 0 11 7.84 39.93 39.93 0 0 0 5.534 2.401 47.972 47.972 0 0 0 9.218 2.19 49.86 49.86 0 0 0 6.782.453c.521 0 1.04-.007 1.557-.022a59.352 59.352 0 0 0 9.148-.998c2.712-.51 5.359-1.095 7.686-1.96a32.764 32.764 0 0 0 1.734-.706 43.588 43.588 0 0 0 4.765-2.492 48.656 48.656 0 0 0 18.932-19.707 5.911 5.911 0 0 1 .194-.014c.468-.026.847.011 1.265.065a118.43 118.43 0 0 1 .397.053 35.66 35.66 0 0 0 2.796.214 37.82 37.82 0 0 1 2.673.198c2.338.287 4.699.573 7.118.775 5.605.462 11.426.629 17.107.457a121.457 121.457 0 0 0 12.76-1.025 174.73 174.73 0 0 0 3.46-.51 111.965 111.965 0 0 0 9.847-1.966 26.75 26.75 0 0 0-2.32 4.316 18.391 18.391 0 0 0-1.238 4.504c-.55 3.927.344 7.595 1.702 10.422a26.066 26.066 0 0 0 13 11.864.794.794 0 0 0-.11-.116c-.288-.256-.864-.526-1.152-.804a.71.71 0 0 1-.132-.164c.295.176.718.412 1.049.52a1.336 1.336 0 0 0 .19.048 37.257 37.257 0 0 1-7.067-8.924 20.855 20.855 0 0 1-.05-.093c-1.719-3.18-3.184-7.863-1.881-12.547a13.279 13.279 0 0 1 .074-.257 16.428 16.428 0 0 1 1.02-2.58c2.16-4.357 6.075-7.575 9.99-9.899a40.69 40.69 0 0 1 .183-.107 156.55 156.55 0 0 1 3.951-2.228 231.959 231.959 0 0 1 1.517-.822c4.927-2.639 9.516-5.09 14.106-7.69a273.864 273.864 0 0 0 6.27-3.658 100.032 100.032 0 0 0 24.605-22.434c.703-.957 1.368-1.952 2.042-2.947a86.909 86.909 0 0 1 1.207-1.748c1.107-1.553 2.196-3.123 3.198-4.745a134.355 134.355 0 0 0 13.644-29.794 166.243 166.243 0 0 0 6.473-29.426c.46-3.508.792-7.176 1.238-10.679.15-1.175.213-2.395.414-3.56.08-.452 1.237-1.248 1.702-1.649a57.52 57.52 0 0 0 .652-.57 69.578 69.578 0 0 0 4.198-4.074 61.2 61.2 0 0 0 4.372-5.166 95.489 95.489 0 0 0 10.379-17.995 85.604 85.604 0 0 0 2.08-4.96 162.116 162.116 0 0 0 4.473-13.766 30.697 30.697 0 0 0 .166-.612 67.204 67.204 0 0 0 .967-4.546 94.728 94.728 0 0 0 .533-3.136c.579-3.798.947-7.82.947-11.927Zm-43.004 69.382a299.541 299.541 0 0 0-3.634-28.964 432.868 432.868 0 0 0-1.68-9.157 155.544 155.544 0 0 0-2.784-11.607 70.107 70.107 0 0 1-.74-3.038c-.212-.933-.42-1.867-.653-2.79a135280.03 135280.03 0 0 1-2.107-8.399 1644.782 1644.782 0 0 1-10.582-44.064c-.256-1.159-.571-2.302-.887-3.446a103.414 103.414 0 0 1-.61-2.28 528.517 528.517 0 0 0-.392-1.551 190.581 190.581 0 0 1-1.052-4.279 300.575 300.575 0 0 0-1.167-4.842c-1.526-6.139-3.179-12.277-4.404-18.578a213.656 213.656 0 0 1-2.735-17.102 129.051 129.051 0 0 1-.67-8.38c-.31-6.726-.123-13.619.989-19.767a45.797 45.797 0 0 1 1.539-6.18 1061.993 1061.993 0 0 0-38.842-27.961.053.053 0 0 0-.045.036.288.288 0 0 0-.006.12 37435.47 37435.47 0 0 0 6.205 27.145 4860.885 4860.885 0 0 1 3.285 14.483c.805 3.566 1.757 7.08 2.709 10.598a850.333 850.333 0 0 1 .8 2.97 1628.563 1628.563 0 0 1 13.565 54.68 936.1 936.1 0 0 1 11.607 56.641 5659.221 5659.221 0 0 1 .401 2.415 391.663 391.663 0 0 1 3.829 27.453 233.443 233.443 0 0 1 1.235 19.475c.046 4.257-.117 8.526-.616 12.714a59.148 59.148 0 0 0 2.413.05c8.543 0 15.72-1.892 21.777-4.728a51.437 51.437 0 0 0 3.252-1.667Zm-102.616-65.054a82.817 82.817 0 0 0-.602.21 43.219 43.219 0 0 1-14.35 2.466 42.35 42.35 0 0 1-1.847-.04 50.075 50.075 0 0 1-1.136-.063 50.036 50.036 0 0 1-10.219-1.762 49.877 49.877 0 0 1-8.453-3.23c-10.18-5.004-18.175-13.034-22.85-23.73-.137-.317-1.08-2.606-1.752-4.654a32.5 32.5 0 0 1-.209-.659c-1.26-4.391-2.046-9.954-1.675-15.516a38.17 38.17 0 0 1 .333-3.107 137.233 137.233 0 0 0 .327-2.367l.041-.312a46.754 46.754 0 0 1 .766-4.542 85.403 85.403 0 0 1 4.02-11.956 445.947 445.947 0 0 1 .21-.528 55.577 55.577 0 0 1 .136-.336c.973-2.395 2.033-4.532 3.093-6.78a133.304 133.304 0 0 0 .657-1.413 31.607 31.607 0 0 0 .112-.247l.102-.23a9.834 9.834 0 0 1 .457-.916 1.706 1.706 0 0 0 .004-.007c.232-.413 1.138-2.4 1.354-2.86a6.243 6.243 0 0 1 .035-.073 361.04 361.04 0 0 1 25.259-43.366c.521-.771 1.073-1.64 1.593-2.321a8.213 8.213 0 0 1 .47-.568 4130.71 4130.71 0 0 0 2.74 12.984c2.182 10.256 4.393 20.512 6.545 30.606a5.541 5.541 0 0 1-1.446.386c-.242.04-.483.078-.721.13a44.909 44.909 0 0 0-7.796 2.38 35.797 35.797 0 0 0-16.448 13.251c-2.774 4.143-4.849 9.485-5.88 15.423a38.663 38.663 0 0 0-.501 4.005 30.769 30.769 0 0 0-.075 2.123 28.828 28.828 0 0 0 .215 3.519 32.038 32.038 0 0 0 2.134 8.427 17.389 17.389 0 0 0 4.365 6.377 13.637 13.637 0 0 0 3.92 2.463 12.54 12.54 0 0 0 3.405.84 11.578 11.578 0 0 0 1.184.06c1.47 0 2.83-.284 4.045-.743a12.057 12.057 0 0 0 2.973-1.64c2.07-1.558 3.535-3.61 4.28-6.344 1.169-4.281-.101-7.951-2.268-10.549a12.363 12.363 0 0 0-4.333-3.328c-2.59-1.17-6.253-1.255-8.925-.258a14.263 14.263 0 0 0-1.719.775 11.686 11.686 0 0 0-3.13 2.372 6.623 6.623 0 0 0-.377.466c-.24.317-.476.634-.809.875-.103-5.14 1.221-9.234 2.786-12.896a31.182 31.182 0 0 1 16.638-17.693 35.449 35.449 0 0 1 10.185-2.478c5.634 25.249 11.183 50.583 16.92 75.728a16.808 16.808 0 0 1-3.658 1.602l-.125.044Zm102.823 71.76a50.489 50.489 0 0 0 .18 3.71c.09 1.227.18 2.446.18 3.667a77.802 77.802 0 0 1-.673 10.34 67.698 67.698 0 0 1-2.111 10.036 80.792 80.792 0 0 1-2.205 6.482 82.933 82.933 0 0 1-7.495 14.72c-4.011 6.27-8.849 11.726-13.771 17.126a106.882 106.882 0 0 1-16.352 14.495 105.217 105.217 0 0 1-1.657 1.17c-8.358 5.786-17.775 10.578-27.298 15.37a4946.944 4946.944 0 0 1-.551.278 112.508 112.508 0 0 1-10.73 4.693c-3.782 1.427-7.628 2.769-11.71 3.766a1911.352 1911.352 0 0 1-1.797.44 288.192 288.192 0 0 1-10.737 2.45c-8.58 1.742-17.83 2.687-27.649 2.99a87.471 87.471 0 0 0 2.648-6.822 69.91 69.91 0 0 0 2.562-9.788 54.394 54.394 0 0 0 .472-3.08 88.695 88.695 0 0 0 .56-6.824 32.544 32.544 0 0 0 .006-.115c.064-1.43.033-2.862-.052-4.269a87.566 87.566 0 0 0-.573-5.675 23.887 23.887 0 0 0 4.853 1.492c6.016 1.226 13.416.89 19.34-.409 6.654-1.467 12.426-3.674 17.848-6.396a18.599 18.599 0 0 0 .76-.416c.505-.288 1.01-.58 1.51-.771a5.255 5.255 0 0 1 .738-.21c.204-.047.408-.092.602-.15 22.17-6.713 36.539-21.758 46.272-41.114 2.498-4.97 4.538-10.329 6.292-16.043a171.835 171.835 0 0 0 .742-2.488c.216-.739.432-1.482.654-2.226a121.787 121.787 0 0 1 .307-1.012 71.345 71.345 0 0 0 2.988.063c4.88 0 9.364-.513 13.488-1.409a57.851 57.851 0 0 0 11.326-3.71c.15-.063.327-.159.524-.236a1.726 1.726 0 0 1 .509-.124Zm13.236-17.256a1.604 1.604 0 0 1-.001 0c-.07.075-.163.161-.26.1a.192.192 0 0 1-.028-.022 64.16 64.16 0 0 0 .033-2.08c0-5.21-.6-10.16-1.066-14.994-1.525-15.79-4.667-30.763-7.81-45.444a6847.11 6847.11 0 0 0-.132-.622c-1.05-4.9-2.253-9.773-3.405-14.599a1124.125 1124.125 0 0 0-8.84-34.368 1810.12 1810.12 0 0 0-2.354-8.551v-.154a1147.576 1147.576 0 0 1 2.714 2.262 182.732 182.732 0 0 1 21.272 20.074 276.203 276.203 0 0 1 1.71 1.993 62.918 62.918 0 0 1 5.822 7.808 21.302 21.302 0 0 1 1.05 1.991 40.91 40.91 0 0 0 .91 1.826 177.258 177.258 0 0 1 1.513 2.838 80.254 80.254 0 0 1 5.605 13.154 64.886 64.886 0 0 1 1.753 6.909 65.994 65.994 0 0 1 1.24 12.696 64.922 64.922 0 0 1-.001.255 68.351 68.351 0 0 1-.752 9.77 70.036 70.036 0 0 1-2.29 10.193 77.44 77.44 0 0 1-.695 2.15 82.706 82.706 0 0 1-6.27 13.997 52.5 52.5 0 0 1-8.563 11.659c-.162.16-.318.327-.478.493a10.614 10.614 0 0 1-.605.59c-.016.013-.037.037-.06.063m-122.553-240.296a86.889 86.889 0 0 0 1.445-9.073c.374-3.542.545-7.237.43-10.931a65.92 65.92 0 0 0-.484-6.254 69.425 69.425 0 0 0-4.127-16.492c-3.09-7.962-7.466-14.672-12.466-20.583a94.076 94.076 0 0 0-1.718-1.975c-1.605 4.887-1.957 11.001-1.885 17.116a190.771 190.771 0 0 0 .183 6.098c.172 3.904.59 7.779 1.084 11.503a328.949 328.949 0 0 0 1.488 10.324 169.166 169.166 0 0 0 .11.664c1.198 7.09 2.86 13.974 4.384 20.79a1119.798 1119.798 0 0 1 .35 1.563c.398 1.789.793 3.578 1.188 5.363a715.849 715.849 0 0 0 3.105 13.604 122.572 122.572 0 0 0 5.418-15.572 115.84 115.84 0 0 0 1.495-6.145Zm34.095 157.387a39.409 39.409 0 0 0 1.198-5.3 30.23 30.23 0 0 0 .35-4.501 53.084 53.084 0 0 0 0-.184c-.012-3.482-.366-6.963-1.032-10.186a32.752 32.752 0 0 0-2.701-7.891 36.654 36.654 0 0 0-4.83-7.326 40.585 40.585 0 0 0-12.466-10.392 12.254 12.254 0 0 0-.57-.29 16.386 16.386 0 0 0-1.2-.512c1.326 6.138 2.672 12.258 4.018 18.378a2289.551 2289.551 0 0 1 9.136 42.853 46.494 46.494 0 0 0 6.356-9.984 35.55 35.55 0 0 0 1.741-4.665Zm81.915-48.542c.247.206.579.527.774.463-1.783-14.608-8.855-24.835-16.661-33.581-5.594-6.268-12.404-11.44-19.15-16.61a918.399 918.399 0 0 1-1.948-1.497 71.738 71.738 0 0 0 4 14.295 61.637 61.637 0 0 0 9.927 16.708 70.385 70.385 0 0 0 8.788 8.426l1.554 1.318a245.404 245.404 0 0 1 1.214 1.038 230.563 230.563 0 0 0 5.762 4.761l1.924 1.551a268.609 268.609 0 0 1 3.816 3.128Zm-79.025 181.426a12.28 12.28 0 0 0 .091.58c.082.47.164.914.114 1.276a1.24 1.24 0 0 1-.049.209c-.202.632-.896 1.517-1.24 2.062-2.263 3.558-4.934 6.865-8.304 9.234a18.813 18.813 0 0 1-.411.28c-.968.64-2.132 1.28-3.295 1.662a7.525 7.525 0 0 1-1.091.275c-.522.086-1.932.138-2.477.052a12.204 12.204 0 0 1-1.436-.326 19.34 19.34 0 0 1-4.238-1.893c-4.556-2.63-7.726-6.522-9.182-12.38a10.952 10.952 0 0 0-.088-.33c-.134-.479-.287-.958-.273-1.27.015-.265.267-.719.464-1.119a6.37 6.37 0 0 0 .104-.22 35.369 35.369 0 0 1 1.526-3.056 26.498 26.498 0 0 1 3.58-4.993 27.356 27.356 0 0 1 1.569-1.581c2.086-1.921 4.55-3.386 8.284-3.732 1.675-.157 3.373.089 4.865.525a14.451 14.451 0 0 1 2.15.817 15.547 15.547 0 0 1 7.908 8.363 21.939 21.939 0 0 1 1.43 5.565Zm85.558-49.965a2.837 2.837 0 0 0 .001-.001 1.578 1.578 0 0 1 0 0Zm.002-.002.001-.001m.003-.003v-.001m-.001.002s0 0 0 0m0 0a2.569 2.569 0 0 1-.002.002" stroke-linejoin="round" stroke-linecap="round" stroke-width=".667" stroke="#ab7e48" fill="transparent" data-name="path30"/></svg>