<svg xmlns="http://www.w3.org/2000/svg" width="127" height="112.31" viewBox="1685 21 127 112.31"><g data-name="شعار لغة الفن-01"><path d="m1757.508 112.626-.212-.098.237.18a4.451 4.451 0 0 1-2.206-2.015 3.205 3.205 0 0 1-.316-1.36 2.802 2.802 0 0 1 .03-.41c.081-.598.335-1.081.604-1.499a18.19 18.19 0 0 1-1.668.333 28.231 28.231 0 0 1-.587.085c-1.027.139-2.15.197-3.274.183a25.792 25.792 0 0 1-1.792-.085 28.71 28.71 0 0 1-1.208-.13 5.94 5.94 0 0 0-.467-.038 5.942 5.942 0 0 1-.465-.037 3.18 3.18 0 0 0-.072-.01c-.08-.009-.15-.012-.239-.006-.735 1.442-1.838 2.523-3.211 3.35a6.929 6.929 0 0 1-1.103.55 6.21 6.21 0 0 1-.79.228 16.754 16.754 0 0 1-.51.107 9.977 9.977 0 0 1-1.823.174 8.525 8.525 0 0 1-1.142-.076 8.24 8.24 0 0 1-1.563-.373 6.949 6.949 0 0 1-.938-.405 7.934 7.934 0 0 1-1.802-1.267 6.012 6.012 0 0 1-.494-.535 5.473 5.473 0 0 0-.192-.216 11.606 11.606 0 0 1-.192-.21 7.362 7.362 0 0 1-1.209-2.02 9.107 9.107 0 0 1-.409-1.281l-.057-.099c-.335-1.368-.367-3.268-.155-4.825a22.732 22.732 0 0 1 .509-2.569 28.02 28.02 0 0 1 .537-1.821 35.79 35.79 0 0 1 2.742-6.171 43.667 43.667 0 0 1 .216-.383 13.465 13.465 0 0 1 .182-.313 139.719 139.719 0 0 0 .194-.326 2.93 2.93 0 0 1 .019-.028c.042-.062.091-.132.101-.172a.054.054 0 0 0 .002-.013l-.114-.213a11.415 11.415 0 0 1-1.192-3.044c-.374-1.528-.534-3.261-.491-5.156l-.123.123c-.564.696-1.234 1.31-1.88 1.95-.48.47-.988.916-1.497 1.363a76.963 76.963 0 0 0-.651.578c-.727.647-1.512 1.22-2.166 1.933a14.98 14.98 0 0 0-1.813 2.278 5.174 5.174 0 0 0-.49.98 3.952 3.952 0 0 0-.131.453 6.613 6.613 0 0 0-.12.715 14.062 14.062 0 0 0-.02.17 5.045 5.045 0 0 0-.032.54 3.164 3.164 0 0 0 .024.402 2.585 2.585 0 0 0 .14.586 2.477 2.477 0 0 0 .506.815c.63.688 1.618 1.212 2.925 1.13a3.043 3.043 0 0 0 .671-.119c.32-.095.6-.237.849-.397a3.626 3.626 0 0 0 1.519-1.797 3.96 3.96 0 0 0 .172-.595l-.122.074c-.27.193-.692.328-1.144.24a1.492 1.492 0 0 1-.082-.019c-.582-.154-1.148-.757-1.05-1.562a1.566 1.566 0 0 1 .004-.027c.099-.682.56-1.161 1.225-1.255a1.713 1.713 0 0 1 .164-.015 1.468 1.468 0 0 1 .087-.002c.512 0 .898.273 1.114.567a1.61 1.61 0 0 1 .258.546c.063.237.088.512.073.833a4.168 4.168 0 0 1-.004.063 4.988 4.988 0 0 1-.972 2.58 5.073 5.073 0 0 1-1.945 1.614 3.72 3.72 0 0 1-.662.23c-.683.164-1.467.124-2.132-.044a4.408 4.408 0 0 1-.196-.054 4.065 4.065 0 0 1-1.064-.494 3.989 3.989 0 0 1-1.02-.981 3.621 3.621 0 0 1-.541-1.078 5.252 5.252 0 0 1-.219-1.69 6.269 6.269 0 0 1 .218-1.491 8.68 8.68 0 0 1 .493-1.344 11.566 11.566 0 0 1 1.06-1.84 12.306 12.306 0 0 1 .28-.38c1.038-1.36 2.239-2.507 3.497-3.605.319-.278.654-.532.973-.81a16.752 16.752 0 0 0 2.622-2.704c.515-.688.981-1.417 1.3-2.26a9.125 9.125 0 0 0 .234-.745c.057-.208.112-.421.166-.632a17.042 17.042 0 0 0 .033-.124c.048-.184.097-.39.13-.597.041-.23.05-.54.164-.72a.423.423 0 0 1 .153-.126 1.64 1.64 0 0 1 .044-.023 19.192 19.192 0 0 1 .048-.024l.123.09a3.427 3.427 0 0 1 .054.644c0 .264-.02.531-.042.8a29.942 29.942 0 0 0-.02.268 25.867 25.867 0 0 0-.068 1.617c-.013 1.234.06 2.468.224 3.597a15.68 15.68 0 0 0 .3 1.553 6.208 6.208 0 0 0 .035.123 3.056 3.056 0 0 1 .064.245l.024.18a3.698 3.698 0 0 0 .085.33c.055.186.12.373.177.547a10.237 10.237 0 0 0 .632 1.602 3.627 3.627 0 0 0 .594.84 11.935 11.935 0 0 0 .81-1.845 28.141 28.141 0 0 0 .227-.662 40.973 40.973 0 0 0 1.021-3.559 36.182 36.182 0 0 0 .14-.611 11.71 11.71 0 0 0 .244-1.416 6.385 6.385 0 0 0 .009-.1c.082-1.097.073-2.252-.147-3.26-.213-.983-.58-1.786-1.087-2.466a3.333 3.333 0 0 0-.417-.475 6.587 6.587 0 0 0-1.523-.979 4.918 4.918 0 0 0-.103-.045c-.8-.344-1.969-.54-2.958-.205a4.607 4.607 0 0 0-1.266.667 4.613 4.613 0 0 0-.817.792 1.964 1.964 0 0 1 .64.248 2.107 2.107 0 0 1 .757.85 1.817 1.817 0 0 1 .158.45c.115.53.05 1.164-.199 1.565a1.66 1.66 0 0 1-1.063.8 2.17 2.17 0 0 1-.496.053 2.762 2.762 0 0 1-.083-.002 1.596 1.596 0 0 1-.525-.102c-.403-.155-.683-.46-.93-.766a14.09 14.09 0 0 1-.073-.09 10.255 10.255 0 0 1-1.39 2.064 35.244 35.244 0 0 0-.171.209 5.792 5.792 0 0 1-.36.406 20.438 20.438 0 0 1-2.426 2.162 25.443 25.443 0 0 1-4.322 2.573c-.425.196-.9.426-1.39.622a.926.926 0 0 1-.044.015c-.09.027-.147.024-.168-.04a.1.1 0 0 1-.003-.017c-.005-.088.116-.142.216-.195a6.795 6.795 0 0 0 .353-.22c.151-.1.298-.2.447-.288 1.07-.656 2.092-1.41 3.056-2.18 1.316-1.04 2.517-2.13 3.57-3.399a78.55 78.55 0 0 0 .158-.188 10.789 10.789 0 0 0 .611-.787c.095-.137.193-.272.292-.407a10.646 10.646 0 0 0 .427-.617c.327-.54.63-1.106.915-1.704a3.67 3.67 0 0 1 .258-.436 57.623 57.623 0 0 1 .069-.104c.646-1.04 1.512-2 2.59-2.638.36-.213.752-.418 1.21-.524a4.91 4.91 0 0 1 1.11-.124c.378-.002.755.031 1.106.09a6.535 6.535 0 0 1 .145.025c.122.025.474.123.54.148a7.567 7.567 0 0 1 1.528.764 8.767 8.767 0 0 1 .792.58c.326.27.62.548.858.884a6.552 6.552 0 0 1 .721 1.339 8.263 8.263 0 0 1 .349 1.086 6.324 6.324 0 0 1 .136.843c.076.758.06 1.611.02 2.393a19.003 19.003 0 0 1-.326 2.616 33.121 33.121 0 0 1-.418 1.865 25.723 25.723 0 0 1-1.077 3.28 62.998 62.998 0 0 1-.77 1.84.788.788 0 0 0 .254.168c.063.03.13.056.195.085.458.213 1.055.353 1.725.353.779 0 1.458-.182 2.032-.398a8.964 8.964 0 0 0 .239-.094c-.152-.41-.508-1.239-.565-1.394a.182.182 0 0 1-.007-.023 1.171 1.171 0 0 1 .008-.066c.061-.453.456-3.082.63-4.35 3.39.28 6.152-.696 7.958-2.252l.18-.14a28.545 28.545 0 0 1-.648 3.703c-.25.941-.579 1.801-1.042 2.525a5.806 5.806 0 0 1-.108.162c1.201-.188 2.14-.696 3.007-1.294a11.08 11.08 0 0 0 1.985-1.786c.06-.066.128-.132.174-.203a.331.331 0 0 0 .047-.108 3.29 3.29 0 0 0 .03-.391l.002-.135a21.028 21.028 0 0 0 0-.179 18.362 18.362 0 0 0-.135-2.57 13.78 13.78 0 0 0-.404-2.017l-.008-.008a9.763 9.763 0 0 1-1.835.527 8.212 8.212 0 0 1-.493.07 10.787 10.787 0 0 1-1.176.065c-.493 0-.986-.034-1.446-.11a6.948 6.948 0 0 1-.116-.02 9.753 9.753 0 0 1-4.101-1.737 9.45 9.45 0 0 1-2.73-3.112 8.726 8.726 0 0 1-.577-1.258 7.938 7.938 0 0 1-.256-.84 9.247 9.247 0 0 1-.22-1.216 8.015 8.015 0 0 1-.033-1.43 13.161 13.161 0 0 1 .422-2.457 18.27 18.27 0 0 1 .762-2.212c.572-1.392 1.234-2.662 1.912-3.916.172-.32 3.048-5.005 4.266-7.086a1.506 1.506 0 0 1 .019-.03c.044-.071.098-.147.11-.191a.08.08 0 0 0 .001-.008.123.123 0 0 0 .001-.013c.001-.058-.032-.153-.056-.247a1.174 1.174 0 0 1-.01-.043c-.327-1.507-.613-3.056-.907-4.563a73.525 73.525 0 0 1-.276-1.474 142.125 142.125 0 0 0-.181-.992 131.863 131.863 0 0 0-.113-.62 43.677 43.677 0 0 1-.312-1.862c-.205-1.4-.191-3.035.002-4.422a11.958 11.958 0 0 1 .17-.952 10.919 10.919 0 0 1 .67-2.06 7.47 7.47 0 0 1 1.2-1.896 9.25 9.25 0 0 0-.912-.887 62.824 62.824 0 0 0-.158-.137 12.817 12.817 0 0 0-1.168-.918 25.211 25.211 0 0 0-4.325-2.46 30.567 30.567 0 0 0-1.11-.472 31.361 31.361 0 0 0-2.728-.934c-.164-.05-.368-.066-.4-.189a1.839 1.839 0 0 1-.02-.09c-.135-.688-.843-4.788-.904-5.34l.123-.091c.143.011.29.051.435.09a6.534 6.534 0 0 0 .186.05 26.782 26.782 0 0 1 3.4 1.08 23.17 23.17 0 0 1 .579.238 23.668 23.668 0 0 1 2.433 1.194 23.563 23.563 0 0 1 1.505.928 21.16 21.16 0 0 1 1.716 1.319 19.888 19.888 0 0 1 4.192 4.907 18.325 18.325 0 0 1 1.561 3.166 21.966 21.966 0 0 1 .35.987 16.037 16.037 0 0 1 .317 1.11 11.9 11.9 0 0 1 .019.078 8.9 8.9 0 0 1 .14.993 37.319 37.319 0 0 1 .031.35 19.963 19.963 0 0 1 .064 1.264c.009.54-.006 1.098-.055 1.66a23.633 23.633 0 0 1-.45 2.959 25.27 25.27 0 0 1-.555 2.104 30.291 30.291 0 0 1-1.512 3.793 1.543 1.543 0 0 1-.041.08c-.078.141-.184.305-.204.428v.057a3.471 3.471 0 0 0 .071.353l.022.087a6.687 6.687 0 0 1 .062.265 426.496 426.496 0 0 1 .543 2.439 676.945 676.945 0 0 0 .544 2.451 2346.458 2346.458 0 0 0 .308 1.398l.077.35a1125.579 1125.579 0 0 0 .546 2.455c.074.344.156.688.237 1.04.024.102.035.208.061.299a.48.48 0 0 0 .037.094 7.145 7.145 0 0 1 1.425.533 4.434 4.434 0 0 1 .553.336 15.162 15.162 0 0 1 .784.598 7.009 7.009 0 0 1 2 2.667 8.462 8.462 0 0 1 .533 1.74 10.37 10.37 0 0 1 .172 1.772l.002.157a11.31 11.31 0 0 1-.019.643 6.956 6.956 0 0 1-.178 1.202 10.309 10.309 0 0 1-.32 1.067 7.926 7.926 0 0 1-1.439 2.47 7.775 7.775 0 0 1-.637.66l-.163.172a.41.41 0 0 0-.009.057c-.008.103.009.235.009.344a26.392 26.392 0 0 1-.143 2.822 19.875 19.875 0 0 1-.437 2.552c-.409 1.687-1.03 3.227-1.88 4.464a7.721 7.721 0 0 1-1.495 1.672c-.588.458-1.234.843-1.969 1.204a12.504 12.504 0 0 1-1.901.748c-.535.16-1.11.288-1.735.374a6.122 6.122 0 0 1-.501.044l-.034.002a22.817 22.817 0 0 0-.183.011c-.262.017-.54-.016-.769-.032-.06-.006-.118.043-.18.093a.866.866 0 0 1-.073.054c-1.087.746-2.255 1.4-3.775 1.72-.4.083-.823.126-1.246.125a5.48 5.48 0 0 1-1.344-.166 4.354 4.354 0 0 1-1.063-.437 4.038 4.038 0 0 1-.809-.62 37.953 37.953 0 0 0-2.962 6.318 21.09 21.09 0 0 0-.878 3.669 10.816 10.816 0 0 0-.09.826c-.051.699-.045 1.453.031 2.128a8.245 8.245 0 0 0 .035.265 54.604 54.604 0 0 0 .014.098c.045.296.096.592.206.828l.017.065.04.025a.462.462 0 0 1 .034.07c.029.076.05.168.08.241a6.922 6.922 0 0 0 .778 1.485 7.032 7.032 0 0 0 .808.964 6.921 6.921 0 0 0 2.024 1.415 7.28 7.28 0 0 0 .836.322 7.572 7.572 0 0 0 1.252.283 7.04 7.04 0 0 0 .709.061 6.652 6.652 0 0 0 .232.004 6.56 6.56 0 0 0 3.253-.862 6.384 6.384 0 0 0 .102-.06 7.39 7.39 0 0 0 .988-.737 6.047 6.047 0 0 0 .05-.041c.083-.071.166-.148.22-.237a17.37 17.37 0 0 1-2.872-.942 11.24 11.24 0 0 1-1.704-.918c-.629-.417-1.233-.9-1.642-1.573a4.68 4.68 0 0 1-.37-.712 2.29 2.29 0 0 1-.12-.41 3.235 3.235 0 0 1-.049-.481 3.418 3.418 0 0 1 .027-.538 2.848 2.848 0 0 1 .014-.095 1.933 1.933 0 0 1 .491-.955 2.124 2.124 0 0 1 .293-.265 2.108 2.108 0 0 1 1.17-.417 2.141 2.141 0 0 1 .023-.001c1.013-.041 1.691.508 2.018 1.188a2.038 2.038 0 0 1 .194.875c0 .16-.018.32-.055.476a1.984 1.984 0 0 1-.336.715 2.186 2.186 0 0 1-.26.293 1.98 1.98 0 0 1-.487.328c-.549.267-1.29.36-1.921.038a1.79 1.79 0 0 1-.01-.006 6.953 6.953 0 0 0 2.474 1.683 16.98 16.98 0 0 0 .197.087 13.52 13.52 0 0 0 1.736.66 7.362 7.362 0 0 0 .764.175 70.915 70.915 0 0 0 .477.074 111.488 111.488 0 0 0 .496.074 5.485 5.485 0 0 0 .754-1.348 6.597 6.597 0 0 0 .153-.43 9.515 9.515 0 0 0 .358-1.397 6.294 6.294 0 0 0 .083-.847 6.767 6.767 0 0 0-.09-1.246 7.813 7.813 0 0 0-.499-1.76 7.645 7.645 0 0 0-.604-1.164 6.075 6.075 0 0 0-2.96-2.454 7.604 7.604 0 0 0-2.065-.48 9.11 9.11 0 0 0-.074-.007 9.182 9.182 0 0 0-.762-.03c-.564 0-1.146.047-1.705.136l.016-.024c.95-.48 2.103-.86 3.436-.931a8.41 8.41 0 0 1 .306-.011 6.207 6.207 0 0 1 .102-.001c1.454 0 2.575.514 3.502 1.09a6.034 6.034 0 0 1-.03-.496c-.029-1.44.489-2.571 1.23-3.337.287-.295.589-.566.957-.754a10.69 10.69 0 0 0-.465 1.445 6.584 6.584 0 0 0-.173 1.3 6.011 6.011 0 0 0-.002.18c0 .866.193 1.586.557 2.16a3.07 3.07 0 0 0 .189.264 1.871 1.871 0 0 0 .484.413 6.225 6.225 0 0 0 1.755.734 5.312 5.312 0 0 0 .678.111c.782.079 1.65.008 2.239-.275l.016-.016c-.377-.615-.62-1.385-.7-2.29a7.311 7.311 0 0 1-.019-.29c-.069-1.515.272-2.827.692-3.93a14.695 14.695 0 0 1 .084-.216 5.46 5.46 0 0 1 .34-.691 6.266 6.266 0 0 1 .24-.382 4.719 4.719 0 0 1 1.692-1.597 2.87 2.87 0 0 1 .754-.275c.178-.037.367-.056.57-.053a2.928 2.928 0 0 1 1.098.23 2.438 2.438 0 0 1 .2.098c1.365.737 2.272 2.269 2.076 4.448a6.566 6.566 0 0 1-.201 1.13 8.093 8.093 0 0 1-.543 1.418 6.875 6.875 0 0 0 1.586-.959 14.306 14.306 0 0 0 3.489-4.178c.024-.114.114-1.048.106-1.441a1.478 1.478 0 0 0-.27-.099c-.093-.026-.186-.048-.278-.082a9.38 9.38 0 0 1-2.277-1.093 10.8 10.8 0 0 1-.95-.7 6.16 6.16 0 0 1-.586-.562 41.543 41.543 0 0 1-.141-.151 3.833 3.833 0 0 1-.728-1.111 4.094 4.094 0 0 1-.245-.79 2.053 2.053 0 0 1-.044-.424 2.02 2.02 0 0 1 .167-.805 1.83 1.83 0 0 1 1.155-1.07 2.79 2.79 0 0 1 .536-.117 1.031 1.031 0 0 1 .128-.008c.336 0 .705.146.937.272a2.054 2.054 0 0 1 .055.03 1.96 1.96 0 0 1 .568.532c.254.355.411.821.344 1.36a2.078 2.078 0 0 1-.005.042 2.044 2.044 0 0 1-.29.808 1.931 1.931 0 0 1-.993.78 2.044 2.044 0 0 1-.524.099c-.175.01-.358.003-.55-.02a3.847 3.847 0 0 1-.185-.029l.099.09a11.85 11.85 0 0 0 2.468 1.49 9.544 9.544 0 0 0 1.543.525 42.83 42.83 0 0 0-.943-5.57c-.261-1.158-.542-2.295-.805-3.431a104.075 104.075 0 0 1-.09-.395c-1.144-5.062-2.353-10.108-3.505-15.187a590.578 590.578 0 0 0-.879-3.797 590.857 590.857 0 0 1-.878-3.797c-.033-.145-.064-.29-.095-.435a19.092 19.092 0 0 0-.256-1.08 44.42 44.42 0 0 1-.133-.487 43.074 43.074 0 0 1-.956-4.598 51.517 51.517 0 0 1-.162-1.142 27.297 27.297 0 0 1-.188-1.687 147.801 147.801 0 0 0-.013-.196 16.193 16.193 0 0 1-.06-1.582 13.19 13.19 0 0 1 .287-2.275 14.051 14.051 0 0 1 .236-.944 8.91 8.91 0 0 1 .558-1.483 4.954 4.954 0 0 1 .463-.762c.066-.082.123-.18.213-.237a6.881 6.881 0 0 0-.126 1.319c0 .63.083 1.24.221 1.797a6.901 6.901 0 0 0 .411 1.193 8.632 8.632 0 0 0 1.885 2.662 10.387 10.387 0 0 0 .959.82 5.85 5.85 0 0 1 .046.034c.143.107.445.34.617.472a48.003 48.003 0 0 0 .056.042 692.142 692.142 0 0 0 1.74 1.293c.079.06.158.118.238.177a1269.358 1269.358 0 0 1 2.369 1.758c.081.06.162.12.243.182a8.635 8.635 0 0 0 .492.35 9.78 9.78 0 0 1 .727.533 18.548 18.548 0 0 1 3.636 3.94 13.272 13.272 0 0 1 1.014 1.81 10.635 10.635 0 0 1 .596 1.639c.32 1.16.465 2.784.182 4.105a5.232 5.232 0 0 1-.092.367 22.375 22.375 0 0 0 .368.4c.25.266.506.532.751.805a8.404 8.404 0 0 1 .329.388 52.147 52.147 0 0 1 .162.201 23.051 23.051 0 0 1 2.025 2.913 20.591 20.591 0 0 1 .156.274 15.197 15.197 0 0 1 1.317 3.099c.277.936.47 1.948.54 3.04a14.214 14.214 0 0 1 .022.472 11.668 11.668 0 0 1 .006.372c0 .698-.06 1.38-.16 2.027a15.473 15.473 0 0 1-.09.534 14.351 14.351 0 0 1-.162.77 6.693 6.693 0 0 1-.027.106 29.794 29.794 0 0 1-.723 2.245 15.482 15.482 0 0 1-.388.942c-.678 1.49-1.446 2.818-2.5 3.94a9.661 9.661 0 0 1-.714.69 8.618 8.618 0 0 1-.111.096c-.077.062-.256.19-.283.265a.06.06 0 0 0-.003.014 4.727 4.727 0 0 0-.037.303 4.726 4.726 0 0 1-.037.303c-.037.3-.07.604-.103.91a35.696 35.696 0 0 1-.11.909 28.326 28.326 0 0 1-1.048 4.844 22.98 22.98 0 0 1-2.367 5.224 13.9 13.9 0 0 1-.354.542 36.249 36.249 0 0 1-.185.269 13.8 13.8 0 0 0-.22.32 9.15 9.15 0 0 1-.336.474 17.074 17.074 0 0 1-4.175 3.818c-1.13.687-2.212 1.263-3.412 1.909a501.77 501.77 0 0 0-.044.024 20.59 20.59 0 0 0-.284.153c-.223.122-.445.248-.64.363-.8.467-1.601 1.155-1.895 2.138a2.254 2.254 0 0 0-.02.07c-.21.796.045 1.592.33 2.125a6.416 6.416 0 0 0 1.201 1.516Zm-.335-63.864-.008.025a3138.812 3138.812 0 0 0 1.076 4.724 934.508 934.508 0 0 1 .534 2.354 33.37 33.37 0 0 0 .389 1.541l.052.192a103.044 103.044 0 0 1 .155.577 280.69 280.69 0 0 1 2.305 9.297 162.907 162.907 0 0 1 1.969 9.634 3538.416 3538.416 0 0 1 .095.58 64.99 64.99 0 0 1 .624 4.499 42.348 42.348 0 0 1 .204 3.073c.004.158.005.317.005.476a16.613 16.613 0 0 1-.103 1.923 10.05 10.05 0 0 0 .39.008c1.449 0 2.673-.32 3.705-.804a8.555 8.555 0 0 0 .554-.285 50.6 50.6 0 0 0-.616-4.924 79.693 79.693 0 0 0-.283-1.556 25.733 25.733 0 0 0-.474-1.974c-.09-.328-.155-.664-.236-.991a8893.106 8893.106 0 0 1-.34-1.36 281.792 281.792 0 0 1-1.81-7.561c-.044-.197-.096-.39-.15-.585a18.545 18.545 0 0 1-.103-.39 66.403 66.403 0 0 0-.083-.33l-.042-.166a19.328 19.328 0 0 1-.12-.495 43.122 43.122 0 0 0-.157-.66c-.27-1.098-.573-2.195-.79-3.322-.262-1.351-.507-2.793-.58-4.333-.055-1.145-.02-2.316.167-3.362a8.104 8.104 0 0 1 .257-1.054 174.952 174.952 0 0 0-6.586-4.75Zm-14.184 12.714-.245.483a2.123 2.123 0 0 0-.115.238 68.883 68.883 0 0 1-.273.574c-.126.265-.25.53-.366.818a9.395 9.395 0 0 0-.023.058 15.775 15.775 0 0 0-.719 2.121 7.086 7.086 0 0 0-.107.603l-.058.417a14.304 14.304 0 0 1-.03.21 6.571 6.571 0 0 0-.055.503 7.912 7.912 0 0 0 .11 1.908 7.574 7.574 0 0 0 .173.75 5.76 5.76 0 0 0 .037.115c.1.3.234.633.282.75a3.904 3.904 0 0 0 .016.036 8.032 8.032 0 0 0 3.873 4.039 8.655 8.655 0 0 0 1.433.549 8.414 8.414 0 0 0 1.669.296 8.392 8.392 0 0 0 .256.015 7.298 7.298 0 0 0 .338.008c.924 0 1.746-.176 2.424-.417.261-.09.515-.172.744-.312a1485.454 1485.454 0 0 1-1.916-8.58l-.952-4.297a6.01 6.01 0 0 0-1.739.427 5.295 5.295 0 0 0-2.813 3.005c-.252.602-.474 1.272-.474 2.107a4.737 4.737 0 0 0 0 .088c.082-.057.131-.147.205-.229a2.021 2.021 0 0 1 .535-.404 2.25 2.25 0 0 1 .29-.128 1.805 1.805 0 0 1 .413-.1c.307-.04.639-.015.92.073a1.557 1.557 0 0 1 .179.068 2.111 2.111 0 0 1 .735.567c.33.398.538.944.43 1.581a2.212 2.212 0 0 1-.046.21 1.945 1.945 0 0 1-.727 1.082 2.104 2.104 0 0 1-.51.278 1.936 1.936 0 0 1-.683.125 1.942 1.942 0 0 1-.196-.01 2.212 2.212 0 0 1-1.242-.557c-.62-.548-.962-1.461-1.097-2.466a7.151 7.151 0 0 1-.006-.049 5.163 5.163 0 0 1-.016-1.027 6.495 6.495 0 0 1 .081-.61 7.432 7.432 0 0 1 .454-1.589 6.118 6.118 0 0 1 .543-1.033 6.09 6.09 0 0 1 2.866-2.281 7.66 7.66 0 0 1 1.244-.373 2.66 2.66 0 0 1 .093-.017l.031-.005a.846.846 0 0 0 .244-.069 15908.19 15908.19 0 0 1-.633-2.951l-.476-2.231a622.304 622.304 0 0 1-.468-2.231c-.107.123-.237.32-.352.491-1.569 2.335-3.023 4.776-4.281 7.373Zm26.155 26.238-.172.058a9.847 9.847 0 0 1-1.916.63c-.698.153-1.456.241-2.281.241a11.88 11.88 0 0 1-.517-.011 4.737 4.737 0 0 0-.001.002c-.049.163-.096.326-.143.489a30.044 30.044 0 0 1-.142.484 19.23 19.23 0 0 1-.877 2.327 13.264 13.264 0 0 1-.194.4 12.959 12.959 0 0 1-6.993 6.702 12.987 12.987 0 0 1-.859.295l-.229.057c-.13.049-.261.14-.384.205a12.603 12.603 0 0 1-2.204.877 13.332 13.332 0 0 1-.82.212 8.494 8.494 0 0 1-1.031.16c-1.083.1-2.254.015-3.07-.348.056.454.112.95.112 1.452a6.27 6.27 0 0 1-.006.26 14.174 14.174 0 0 1-.084 1.082 10.59 10.59 0 0 1-.087.597 12.407 12.407 0 0 1-.434 1.665 14.186 14.186 0 0 1-.449 1.161 30.24 30.24 0 0 0 3.15-.25 23.726 23.726 0 0 0 1.54-.257 43.36 43.36 0 0 0 1.996-.46 155.402 155.402 0 0 0 .129-.032 17.032 17.032 0 0 0 1.985-.639 22.67 22.67 0 0 0 1.822-.795 39.524 39.524 0 0 0 4.71-2.653 18.31 18.31 0 0 0 .291-.206c.989-.72 1.945-1.548 2.77-2.465a21.348 21.348 0 0 0 2.337-2.917 13.88 13.88 0 0 0 1.265-2.489 13.84 13.84 0 0 0 .377-1.115 11.588 11.588 0 0 0 .355-1.676c.076-.553.118-1.14.12-1.76a14.161 14.161 0 0 0 0-.03c0-.208-.017-.415-.034-.623a7.994 7.994 0 0 1-.032-.63Zm-1.798-23.461v.025a304.224 304.224 0 0 1 .442 1.614 195.785 195.785 0 0 1 1.454 5.685 520.233 520.233 0 0 0 .148.615 78.846 78.846 0 0 1 .432 1.867c.54 2.53 1.087 5.111 1.348 7.831a93.717 93.717 0 0 0 .049.489c.079.777.158 1.572.13 2.411l.058-.025.18-.188c.588-.582 1.038-1.237 1.454-1.982.474-.836.883-1.762 1.185-2.745.302-1 .515-2.187.515-3.391a10.56 10.56 0 0 0 0-.07c0-.747-.079-1.465-.213-2.14a11.626 11.626 0 0 0-.294-1.165 13.62 13.62 0 0 0-.951-2.237 27.383 27.383 0 0 0-.258-.483c-.123-.221-.204-.442-.335-.647a11.15 11.15 0 0 0-1.003-1.349 89.37 89.37 0 0 0-.272-.322 30.249 30.249 0 0 0-3.478-3.299 202.698 202.698 0 0 0-.59-.494Zm-16.734-20.332a14.584 14.584 0 0 0 .252-1.586c.096-.93.108-1.92-.015-2.879a11.783 11.783 0 0 0-.699-2.804c-.51-1.32-1.228-2.435-2.048-3.418a15.652 15.652 0 0 0-.358-.413c-.36 1.106-.351 2.588-.286 3.948a25.24 25.24 0 0 0 .18 1.958 54.78 54.78 0 0 0 .251 1.755 41.92 41.92 0 0 0 .019.113 52.863 52.863 0 0 0 .6 2.9 529.511 529.511 0 0 1 .143.63 314.391 314.391 0 0 1 .13.587l.13.587a158.002 158.002 0 0 0 .525 2.316 20.68 20.68 0 0 0 .94-2.71 19.208 19.208 0 0 0 .236-.984Zm5.785 26.763a6.661 6.661 0 0 0 .207-.928 5.195 5.195 0 0 0 .055-.744 8.354 8.354 0 0 0-.158-1.656 6.82 6.82 0 0 0-.022-.105 5.481 5.481 0 0 0-.456-1.34 6.392 6.392 0 0 0-.819-1.248 6.927 6.927 0 0 0-2.116-1.77c-.06-.03-.13-.065-.213-.102a2.941 2.941 0 0 0-.089-.037 715.243 715.243 0 0 0 .644 2.965l.108.493a386.437 386.437 0 0 1 1.478 6.954c.572-.697 1.087-1.491 1.381-2.482Zm13.89-8.258.131.082c-.29-2.383-1.408-4.086-2.668-5.53a21.01 21.01 0 0 0-.159-.18 21.41 21.41 0 0 0-3.056-2.678l-.523-.402a12.104 12.104 0 0 0 .678 2.43 10.49 10.49 0 0 0 1.684 2.838c.541.65 1.182 1.164 1.824 1.716a30.433 30.433 0 0 1 .137.119c.455.397.931.774 1.398 1.151a42.215 42.215 0 0 1 .555.454Zm-13.4 30.85a2.343 2.343 0 0 0 .001.005c.016.121.04.226.032.315-.014.093-.122.237-.187.337a.976.976 0 0 0-.025.04 5.413 5.413 0 0 1-1.406 1.573 3.221 3.221 0 0 1-.08.055c-.211.14-.476.278-.729.322-.081.015-.29.023-.395.012a.386.386 0 0 1-.03-.004 2.059 2.059 0 0 1-.262-.06 3.328 3.328 0 0 1-.702-.317c-.776-.442-1.315-1.106-1.56-2.105a1.565 1.565 0 0 0-.014-.05c-.023-.083-.052-.166-.052-.22.007-.048.048-.125.08-.191a1.272 1.272 0 0 0 .018-.039 5.643 5.643 0 0 1 .259-.519 4.68 4.68 0 0 1 .607-.849c.417-.45.867-.827 1.667-.901.433-.041.875.082 1.193.23.866.409 1.43 1.187 1.585 2.367Z" fill="#ba8748" fill-rule="evenodd" data-name="Path 49"/><path d="m1747.189 133.13-.066-1.073-.016-1.335v-2.564l.016-1.057 3.113 3.334 1.839 2.04c.171.196.4.467.686.794h.155l-.032-1.261.032-2.515.107-2.662.049-1.106.016-.131.016-.131a3.394 3.394 0 0 1-.084.013 1.4 1.4 0 0 1-.194.02c-.094 0-.221-.006-.382-.022a6.08 6.08 0 0 1-.108-.011l.017.09.032.893v3.596c0 .548-.008.957-.032 1.228l-.066-.073-5.515-5.906h-.188v3.751l-.082 2.614a12.427 12.427 0 0 1-.01.271c-.01.194-.023.426-.04.698a2263.266 2263.266 0 0 0-.031.505c.063-.019.15-.028.27-.031a4.299 4.299 0 0 1 .114-.002c.171 0 .302.009.384.033Zm18.515-7.151-.066-.041-.073-.05a6.328 6.328 0 0 0-.858-.312 5.382 5.382 0 0 0-.441-.105 6.658 6.658 0 0 0-.751-.099 8.695 8.695 0 0 0-.663-.024 5.92 5.92 0 0 0-1.256.128 4.868 4.868 0 0 0-.999.33 3.505 3.505 0 0 0-1.552 1.369 3.696 3.696 0 0 0-.498 1.344 4.932 4.932 0 0 0-.066.826c0 .59.066 1.097.202 1.523a2.874 2.874 0 0 0 .198.476 3.984 3.984 0 0 0 .58.79 3.017 3.017 0 0 0 .964.685 4.895 4.895 0 0 0 1.983.487 5.74 5.74 0 0 0 .224.004 9.43 9.43 0 0 0 3.04-.508v-1.72l.04-1.122v-.336c-.076.038-.222.062-.438.065a3.447 3.447 0 0 1-.052 0 2.173 2.173 0 0 1-.068 0 8.896 8.896 0 0 1-.472-.032c.018.159.027.381.031.661a26.511 26.511 0 0 1 .002.355v1.826a3.187 3.187 0 0 1-.805.277 4.81 4.81 0 0 1-.976.092c-.985 0-1.772-.273-2.338-.82a2.677 2.677 0 0 1-.089-.09 3.142 3.142 0 0 1-.543-.824 3.649 3.649 0 0 1-.151-.388 4.721 4.721 0 0 1-.237-1.474 4.79 4.79 0 0 1 .11-1.055 3.233 3.233 0 0 1 .707-1.436 3.046 3.046 0 0 1 1.086-.778 3.356 3.356 0 0 1 1.324-.27c.482 0 .948.098 1.39.295.44.196.816.475 1.127.835h.122v-.008a2.767 2.767 0 0 1 .001-.004c.025-.09.065-.22.114-.397a6.014 6.014 0 0 1 .055-.199c.03-.103.061-.194.092-.276Zm36.45 0-.065-.041-.074-.05a6.364 6.364 0 0 0-.862-.313 5.595 5.595 0 0 0-.437-.104 6.658 6.658 0 0 0-.75-.099 8.695 8.695 0 0 0-.664-.024 5.92 5.92 0 0 0-1.256.128 4.868 4.868 0 0 0-.999.33 3.505 3.505 0 0 0-1.552 1.369 3.696 3.696 0 0 0-.497 1.344 4.932 4.932 0 0 0-.067.826c0 .828.13 1.491.4 2 .409.704.916 1.195 1.545 1.474a4.895 4.895 0 0 0 1.982.487 5.74 5.74 0 0 0 .224.004c1.038 0 2.05-.172 3.04-.508v-1.72l.04-1.122v-.336a.4.4 0 0 1-.076.027 1.592 1.592 0 0 1-.362.038 3.448 3.448 0 0 1-.052 0 2.173 2.173 0 0 1-.068 0 8.895 8.895 0 0 1-.471-.032 3.788 3.788 0 0 1 .015.188c.008.132.013.29.015.473a26.536 26.536 0 0 1 .002.355v1.826a3.187 3.187 0 0 1-.804.277 4.81 4.81 0 0 1-.977.092 4.29 4.29 0 0 1-.989-.107 2.848 2.848 0 0 1-1.438-.802 3.142 3.142 0 0 1-.543-.825 3.648 3.648 0 0 1-.151-.388 4.72 4.72 0 0 1-.237-1.474 4.79 4.79 0 0 1 .11-1.055 3.233 3.233 0 0 1 .707-1.436 3.007 3.007 0 0 1 1.095-.778 3.356 3.356 0 0 1 1.324-.27c.482 0 .947.098 1.389.295.44.196.817.475 1.127.835h.115v-.008c.019-.071.049-.169.085-.296a11.066 11.066 0 0 0 .029-.105 6.01 6.01 0 0 1 .055-.199 4.57 4.57 0 0 1 .058-.18 3.684 3.684 0 0 1 .034-.096Zm-24.17 3.956.107-3.104a9.332 9.332 0 0 1 0-.007c.008-.155.025-.382.04-.673a36.01 36.01 0 0 0 .017-.214 9.98 9.98 0 0 0 .022-.353 3.24 3.24 0 0 0 .003-.121.363.363 0 0 1-.063.016 1.644 1.644 0 0 1-.272.016 6.83 6.83 0 0 0-.146-.015 4.21 4.21 0 0 0-.22-.016 2.077 2.077 0 0 0-.083-.001l.032 1.015a37.178 37.178 0 0 1 .015.376c.009.242.014.45.016.62a16.158 16.158 0 0 1 .002.209 43.228 43.228 0 0 1 0 .124c-.001.137-.003.314-.009.523a19.86 19.86 0 0 0-.004.201c-.004.188-.004.335-.004.446a133.542 133.542 0 0 1 0 .002 27.023 27.023 0 0 1-.065 1.472 3.499 3.499 0 0 1-.229 1.008 2.152 2.152 0 0 1-.784.942 1.478 1.478 0 0 1-.199.113 2.707 2.707 0 0 1-.43.157c-.23.056-.436.088-.623.096a2.177 2.177 0 0 1-.097.003 3.265 3.265 0 0 1-.737-.08 2.455 2.455 0 0 1-.864-.38 1.829 1.829 0 0 1-.674-.897 2.757 2.757 0 0 1-.127-.487 6.626 6.626 0 0 1-.09-1.155c0-.07 0-.17.003-.294a9.155 9.155 0 0 1 .005-.156 9.168 9.168 0 0 0 .005-.14c.004-.13.004-.235.004-.302l.057-2.384.033-.754c0-.1.004-.175.01-.235a1.995 1.995 0 0 1 .006-.051l-.155.016-.188.024-.147.008a.473.473 0 0 1-.025 0c-.031-.002-.07-.006-.119-.007a1.253 1.253 0 0 0-.036 0 43.96 43.96 0 0 1-.145-.015 13.018 13.018 0 0 1-.081-.01 9.484 9.484 0 0 1-.011 0 3.915 3.915 0 0 1-.002 0c-.08-.009-.137-.017-.17-.017l.033.303.033 1.753v1.213l-.041 1.253c0 .484.036.913.107 1.289a4.546 4.546 0 0 0 .04.186 1.998 1.998 0 0 0 .62 1.048 4.638 4.638 0 0 0 .152.13c.104.083.195.148.272.194a.969.969 0 0 0 .083.045 3.503 3.503 0 0 0 .943.326c.28.056.582.087.904.091a5.992 5.992 0 0 0 .082 0 4.163 4.163 0 0 0 1.001-.113 2.878 2.878 0 0 0 1.377-.763c.24-.219.424-.524.565-.914a3.982 3.982 0 0 0 .064-.192 2.23 2.23 0 0 0 .08-.287 6.11 6.11 0 0 0 .108-1.08Zm31.173-4.456-1.21-.033c.035.707.052 1.157.056 1.36a4.163 4.163 0 0 1 .001.082l.017.983-.017 3.842-.073 1.4c.081 0 .196 0 .337-.003a9.75 9.75 0 0 0 .137-.004 11.374 11.374 0 0 1 .146-.005c.121-.003.214-.004.28-.004a43.516 43.516 0 0 1 .023 0c.088 0 .204 0 .353-.003a11.751 11.751 0 0 0 .146-.005 11.808 11.808 0 0 1 .154-.005c.144-.003.256-.003.336-.003.292 0 .7.014 1.23.029a157.58 157.58 0 0 0 .15.004l.777.016a10.183 10.183 0 0 1 0-.001 12.737 12.737 0 0 1-.016-.67 5.506 5.506 0 0 1-.585.074 5.822 5.822 0 0 1-.429.016 41.155 41.155 0 0 1-1.116.039 41.121 41.121 0 0 1-.894.01 18.92 18.92 0 0 1 0-.003c-.006-.17-.012-.4-.015-.694a32.695 32.695 0 0 1 0-.286v-2.294H1810.062l.613.016a5.054 5.054 0 0 1 .256.008c.178.009.386.026.623.052a16.848 16.848 0 0 1 .118.014 49.483 49.483 0 0 1-.011-.075 7.956 7.956 0 0 1-.038-.26.101.101 0 0 1 0-.009l.037-.251a49.664 49.664 0 0 1 .012-.077 7.533 7.533 0 0 1-.095.006c-.105.007-.238.013-.403.019-.179.006-.325.018-.435.023a1.837 1.837 0 0 1-.072.001l-.596.033h-1.136v-1.138l.049-1.68h.825l1.12.033c.163.008.351.025.539.04a13.659 13.659 0 0 1 .005.001c.129.011.236.022.327.028a1.934 1.934 0 0 0 .125.005.496.496 0 0 1-.018-.08 1.718 1.718 0 0 1-.014-.256l.016-.172.016-.156a35.75 35.75 0 0 1-.361.016c-.337.012-.6.017-.79.017h-1.618Zm-107.943 7.245a46.624 46.624 0 0 1-.003-.003 84.222 84.222 0 0 0-.061-.085 58.13 58.13 0 0 0-.331-.456l-1.332-1.72-.89-1.049h-.417v1.384l.032 2.335a4.898 4.898 0 0 0-.405-.031 3.23 3.23 0 0 0-.101-.002c-.092 0-.216.005-.373.018a7.463 7.463 0 0 0-.167.015 10.345 10.345 0 0 1 .006-.303 53.435 53.435 0 0 1 .01-.327 10.618 10.618 0 0 0 .015-.223 30.667 30.667 0 0 0 .018-.441l.05-3.932-.066-2.18v-.278l.874.033 1.496-.041c.547 0 1.013.057 1.397.164a1.328 1.328 0 0 1 .52.272 1.427 1.427 0 0 1 .338.44c.155.254.229.541.229.852a2.398 2.398 0 0 1-.008.197 1.714 1.714 0 0 1-.654 1.253 3.154 3.154 0 0 1-.74.438 4.134 4.134 0 0 1-.894.259l2.304 2.924.54.64.195.245a5.699 5.699 0 0 0-.058-.005l-.178-.017a6.117 6.117 0 0 1-.099-.01 4.223 4.223 0 0 0-.265-.024 1.367 1.367 0 0 0-.062-.001c-.073 0-.171.008-.31.024-.137.016-.243.025-.324.033a4.048 4.048 0 0 0-.003 0 1.219 1.219 0 0 0-.028-.043c-.048-.07-.13-.181-.242-.337a18.702 18.702 0 0 1-.003-.004 28.58 28.58 0 0 1-.005-.007m-12.722-7.424L1685 133.13c.188-.024.327-.033.417-.033.18 0 .302.009.384.033a22.183 22.183 0 0 1 .173-.519c.207-.596.513-1.422.93-2.48l1.511-.04 1.349.04.547 1.336.507 1.335.106.336c.1-.018.241-.028.425-.03a10.382 10.382 0 0 1 .188-.002 3.3 3.3 0 0 1 .1.001c.1.003.235.011.403.026a10.598 10.598 0 0 1 .06.005l-.196-.401-3.17-7.422h-.237v-.008Zm98.239 0-3.498 7.823c.149-.02.267-.028.354-.031a1.848 1.848 0 0 1 .063-.002c.18 0 .303.009.384.033.173-.543.499-1.434.977-2.671a166.082 166.082 0 0 1 .126-.327l1.512-.041 1.348.04.54 1.336.506 1.335.098.336c.1-.018.241-.028.425-.03a10.382 10.382 0 0 1 .188-.002c.105 0 .273.007.503.027a10.598 10.598 0 0 1 .06.005l-.195-.401-3.17-7.422h-.221v-.008Zm-49.017 0-3.498 7.823c.188-.024.327-.033.417-.033a3.837 3.837 0 0 1 .135.002c.106.004.19.013.25.031a19.998 19.998 0 0 1 .174-.519c.186-.533.453-1.25.802-2.152a166.082 166.082 0 0 1 .126-.327l1.512-.041 1.348.04.54 1.336.506 1.335.098.336a1.339 1.339 0 0 1 .112-.015c.085-.009.19-.014.313-.016a10.382 10.382 0 0 1 .188-.001 3.3 3.3 0 0 1 .1.001c.1.003.235.011.403.026a10.598 10.598 0 0 1 .06.005l-.196-.401-3.17-7.422h-.22v-.008Zm-24.873.156-1.38.049-1.398.04-1.47-.024a9.198 9.198 0 0 0-.002 0c-.13-.007-.318-.013-.557-.024a43.032 43.032 0 0 1-.193-.009c-.343-.016-.597-.032-.768-.032a15.004 15.004 0 0 1-.002.207c-.002.133-.005.248-.009.344a10.794 10.794 0 0 1-.006.12l1.087-.073c.155-.017.39-.025.7-.033a79.736 79.736 0 0 1 .003 0 63.336 63.336 0 0 0 .167-.005c.225-.006.403-.013.53-.02a8.582 8.582 0 0 0 .005 0v1.155l-.057 4.506-.049 1.171a2.944 2.944 0 0 1-.001.092 2.163 2.163 0 0 1-.01.145 1.198 1.198 0 0 1-.005.05 2.996 2.996 0 0 1 .369-.043 3.7 3.7 0 0 1 .211-.006c.06 0 .138.006.237.02a4.042 4.042 0 0 1 .033.004 6.15 6.15 0 0 0 .08.011l.12.015a2.876 2.876 0 0 1 .053.007l-.016-.065-.066-1.13v-4.474l.033-1.171a2.319 2.319 0 0 1 .001-.081c.002-.053.006-.098.01-.136a1.319 1.319 0 0 1 .005-.045H1711.367l1.16.106a1.066 1.066 0 0 1 .057.002c.044.002.097.007.161.016a3.164 3.164 0 0 1 .101.015 3.788 3.788 0 0 1-.015-.115 2.302 2.302 0 0 1-.017-.223.903.903 0 0 1 0-.014c0-.09.008-.205.032-.352Zm13.744 1.72.073-1.72h-1.07a15.536 15.536 0 0 1 .056 1.241 21.245 21.245 0 0 1 .001.184v4.825l-.073 1.4c.08 0 .196 0 .337-.003a9.749 9.749 0 0 0 .137-.004 11.377 11.377 0 0 1 .146-.005c.121-.003.214-.004.28-.004a43.515 43.515 0 0 1 .023 0c.087 0 .204 0 .353-.003a11.75 11.75 0 0 0 .145-.005 11.81 11.81 0 0 1 .155-.005c.144-.003.256-.003.336-.003a14.567 14.567 0 0 1 .265.003c.258.005.58.015.965.026a157.568 157.568 0 0 0 .15.004l.81.016a4.19 4.19 0 0 1-.015-.107 2.355 2.355 0 0 1-.018-.202.819.819 0 0 1 0-.027c0-.082.008-.196.032-.336a26.653 26.653 0 0 1-.299.033c-.4.041-.658.058-.771.058a41.303 41.303 0 0 1-2.026.049c0-.115 0-.279-.009-.492a10.782 10.782 0 0 1-.004-.15c-.004-.142-.004-.255-.004-.341v-1.393h-.008a6.036 6.036 0 0 0 0-.087c-.002-.112-.006-.258-.008-.44a17.5 17.5 0 0 1 0-.137 20.888 20.888 0 0 1-.005-.207c-.003-.194-.003-.348-.003-.464 0-.574.016-1.139.049-1.704ZM1698.155 129l.033-3.096a3.657 3.657 0 0 1 .168-.01c.19-.006.443-.006.755-.006.301 0 .526.006.668.014a5.594 5.594 0 0 1 .035.002 1.94 1.94 0 0 1 .386.108c.183.074.336.175.46.305a1.174 1.174 0 0 1 .012.013 1.219 1.219 0 0 1 .332.628 1.81 1.81 0 0 1 .035.371 1.693 1.693 0 0 1-.069.496 1.448 1.448 0 0 1-.323.561 1.852 1.852 0 0 1-.664.447 2.468 2.468 0 0 1-.382.118 6.793 6.793 0 0 1-.774.064 6.287 6.287 0 0 1-.149.002c-.041 0-.1 0-.17-.003a3.11 3.11 0 0 1-.091-.005 3.106 3.106 0 0 0-.081-.005 3.42 3.42 0 0 0-.135-.003 7.071 7.071 0 0 0-.046 0Zm-9.69.656h-1.349l1.226-2.876 1.242 2.876h-1.12Zm49.22 0h-1.347l1.217-2.876 1.242 2.876h-1.111Zm49.018 0h-1.348l1.217-2.876 1.242 2.876h-1.111Zm-85.487 3.07" fill="#ba8748" fill-rule="evenodd" data-name="Path 50"/></g></svg>