<svg xmlns="http://www.w3.org/2000/svg" width="75.973" height="62.164"><g data-name="Group 592"><path d="M75.973 4.452V0H55.538v4.452h7.992v7.133h-3.742v3.74H47.091l-3.996-7.99H32.878l-3.996 7.99H16.184v-3.74h-3.74V4.452h7.99V0H0v4.452h7.992v7.133H4.25v5.967a5.967 5.967 0 0 0 5.967 5.967 5.953 5.953 0 0 0 4.652-2.232 5.968 5.968 0 0 0 .885-1.51h8.02l2.882 5.766h22.66l2.884-5.766h8.02a5.968 5.968 0 0 0 5.528 3.742 6.136 6.136 0 0 0 .008 0 5.967 5.967 0 0 0 5.967-5.967v-5.967H67.98V4.452h7.992Z" fill="#ba8748" fill-rule="evenodd" data-name="Path 468"/><path d="M50.758 36.62h-7.056v-6.625H32.878v6.625h-7.663a5.109 5.109 0 0 0-5.109 5.109v15.326a5.109 5.109 0 0 0 5.109 5.109h25.543a5.109 5.109 0 0 0 5.109-5.11V41.73a5.109 5.109 0 0 0-5.109-5.109ZM37.986 56.726c-4.044 0-7.334-3.29-7.334-7.334s3.29-7.335 7.334-7.335a7.343 7.343 0 0 1 7.335 7.335 7.343 7.343 0 0 1-7.335 7.334Z" fill="#ba8748" fill-rule="evenodd" data-name="Path 469"/><path d="M37.987 45.444a3.952 3.952 0 0 0-3.948 3.948 3.952 3.952 0 0 0 3.948 3.948 3.952 3.952 0 0 0 3.948-3.948 3.952 3.952 0 0 0-3.948-3.948Zm2.368 4.737a.79.79 0 0 1-.79-.79 1.58 1.58 0 0 0-1.578-1.578.79.79 0 1 1 0-1.58 3.161 3.161 0 0 1 3.158 3.159.79.79 0 0 1-.79.79Z" fill="#ba8748" fill-rule="evenodd" data-name="Path 470"/></g></svg>