<svg xmlns="http://www.w3.org/2000/svg" width="77.413" height="62.274"><g data-name="svgexport-6 (14)"><g data-name="_x30_9_camera_photography"><g data-name="Group 566"><path d="M38.707 23.87a12.308 12.308 0 0 0-12.294 12.294 12.308 12.308 0 0 0 12.294 12.293C45.485 48.457 51 42.942 51 36.164A12.308 12.308 0 0 0 38.707 23.87Zm4.917 12.294a2.458 2.458 0 0 0 2.459 2.458 2.458 2.458 0 0 0 2.459-2.458 9.845 9.845 0 0 0-9.835-9.836 2.458 2.458 0 0 0-2.46 2.46 2.458 2.458 0 0 0 2.46 2.458 4.922 4.922 0 0 1 4.917 4.918Z" fill="#ba8748" fill-rule="evenodd" data-name="Path 458"/><g data-name="Group 565"><path d="m52.304 7.376-1.377-5.515A2.462 2.462 0 0 0 48.542 0h-19.67a2.462 2.462 0 0 0-2.385 1.861L25.11 7.376h27.194Z" fill="#ba8748" fill-rule="evenodd" data-name="Path 459"/><path d="M69.672 10.178H7.742C3.472 10.178 0 13.684 0 17.992V54.46c0 4.309 3.473 7.815 7.741 7.815h61.93c4.269 0 7.742-3.506 7.742-7.815V17.992c0-4.308-3.473-7.814-7.741-7.814ZM20.644 36.226a18.17 18.17 0 0 0 18.063 18.233A18.17 18.17 0 0 0 56.77 36.226c0-10.055-8.105-18.234-18.063-18.234-9.958 0-18.063 8.18-18.063 18.234Zm-7.742-10.42c-1.427 0-2.58-1.166-2.58-2.604a2.592 2.592 0 0 1 2.58-2.605 2.592 2.592 0 0 1 2.58 2.605c0 1.438-1.153 2.605-2.58 2.605Z" fill="#ba8748" fill-rule="evenodd" data-name="Path 460"/></g></g></g></g></svg>