<svg xmlns="http://www.w3.org/2000/svg" width="74.556" height="62.131" viewBox="488.355 609.932 74.556 62.131"><g data-name="Group 593"><g data-name="svgexport-10 (18)"><path d="M506.994 623.911a4.66 4.66 0 0 1-4.66 4.66 4.66 4.66 0 0 1-4.66-4.66 4.66 4.66 0 0 1 4.66-4.66 4.66 4.66 0 0 1 4.66 4.66Z" fill="#ba8748" fill-rule="evenodd" data-name="Path 471"/><path d="M555.145 630.124v18.804a12.275 12.275 0 0 1-12.261 12.261h-31.23v3.107a7.777 7.777 0 0 0 7.766 7.766h35.725c4.28 0 7.766-3.485 7.766-7.766V637.89c0-4.28-3.486-7.766-7.766-7.766Z" fill="#ba8748" fill-rule="evenodd" data-name="Path 472"/><path d="M542.884 609.932h-46.928c-4.19 0-7.601 3.41-7.601 7.601v31.392a7.48 7.48 0 0 0 .168 1.569 25.207 25.207 0 0 1 .03.196c.106.676.095.777.331 1.333a15.011 15.011 0 0 0 .07.159.397.397 0 0 0 .022.096c.093.263.437.612.572.695a7.585 7.585 0 0 0 6.156 3.552 7.638 7.638 0 0 0 .252.004h46.924a7.612 7.612 0 0 0 7.605-7.601v-31.395a7.612 7.612 0 0 0-7.601-7.601Zm-46.928 6.213h46.924a1.393 1.393 0 0 1 1.392 1.388v19.112l-9.813-11.448a5.515 5.515 0 0 0-3.776-1.88 8.013 8.013 0 0 0-.39-.03 5.434 5.434 0 0 0-4.15 1.96l-11.538 13.852-3.76-3.756a5.453 5.453 0 0 0-7.449-.24 5.494 5.494 0 0 0-.254.24l-8.574 8.571v-26.38c0-.765.624-1.39 1.388-1.39Z" fill="#ba8748" fill-rule="evenodd" data-name="Path 473"/></g><path d="M8 0h46.179a8 8 0 0 1 8 8v30.598a8 8 0 0 1-8 8H8a8 8 0 0 1-8-8V8a8 8 0 0 1 8-8" stroke-linejoin="round" stroke-linecap="round" stroke-width="8" stroke="#ba8748" fill="transparent" transform="matrix(.87134 0 0 .82832 492.063 614.805)" data-name="Rectangle 194"/></g></svg>