<svg xmlns="http://www.w3.org/2000/svg" width="72.99" height="42.884" viewBox="1068.892 620.696 72.99 42.884"><g data-name="svgexport-10 (16)"><g data-name="Group 588"><g data-name="Group 587"><path d="M1110.178 620.696h-33.3a8.01 8.01 0 0 0-7.986 7.986v26.912a8.01 8.01 0 0 0 7.985 7.986h33.301a8.01 8.01 0 0 0 7.986-7.986v-26.912a7.958 7.958 0 0 0-7.986-7.986Z" fill="#ba8748" fill-rule="evenodd" data-name="Path 466"/></g></g><g data-name="Group 590"><g data-name="Group 589"><path d="m1134.615 625.647-12.458 7.188v18.527l12.537 7.187a4.82 4.82 0 0 0 1.455.564c1.96.41 4.01-.473 5.094-2.32a4.894 4.894 0 0 0 .637-2.274 4.808 4.808 0 0 0 .002-.123V629.72c0-2.91-2.711-5.277-5.768-4.662a5.139 5.139 0 0 0-.142.03 1.763 1.763 0 0 0-.001 0c-.472.08-.943.313-1.338.548a7.839 7.839 0 0 0-.018.011Z" fill="#ba8748" fill-rule="evenodd" data-name="Path 467"/></g></g></g></svg>